<svg width="1372" height="134" viewBox="0 0 1372 134" fill="none" xmlns="http://www.w3.org/2000/svg">
<g filter="url(#filter0_d_2333_12)">
<mask id="path-1-outside-1_2333_12" maskUnits="userSpaceOnUse" x="9.3125" y="-0.25" width="1352" height="114" fill="black">
<rect fill="white" x="9.3125" y="-0.25" width="1352" height="114"/>
<path d="M48.125 10V28.75H57.5V47.5H76.25V28.75H85.625V10H113.75V103.75H85.625V66.25H76.25V85H57.5V66.25H48.125V103.75H20V10H48.125ZM151.25 28.75V85H160.625V28.75H151.25ZM188.75 10V103.75H123.125V10H188.75ZM235.625 103.75V66.25H226.25V103.75H198.125V10H263.75V47.5H254.375V56.875H263.75V103.75H235.625ZM226.25 28.75V47.5H235.625V28.75H226.25ZM301.25 47.5H338.75V66.25H301.25V85H338.75V103.75H273.125V10H338.75V28.75H301.25V47.5ZM413.75 47.5H451.25V66.25H413.75V103.75H385.625V10H451.25V28.75H413.75V47.5ZM498.125 103.75V66.25H488.75V103.75H460.625V10H526.25V47.5H516.875V56.875H526.25V103.75H498.125ZM488.75 28.75V47.5H498.125V28.75H488.75ZM563.75 28.75V85H573.125V28.75H563.75ZM601.25 10V103.75H535.625V10H601.25ZM638.75 10V28.75H648.125V47.5H666.875V28.75H676.25V10H704.375V103.75H676.25V66.25H666.875V85H648.125V66.25H638.75V103.75H610.625V10H638.75ZM779.375 28.75V85H788.75V28.75H779.375ZM807.5 10V19.375H816.875V94.375H807.5V103.75H751.25V10H807.5ZM854.375 47.5H891.875V66.25H854.375V85H891.875V103.75H826.25V10H891.875V28.75H854.375V47.5ZM929.375 10V85H938.75V10H966.875V75.625H957.5V94.375H948.125V103.75H920V94.375H910.625V75.625H901.25V10H929.375ZM1004.38 28.75V85H1013.75V28.75H1004.38ZM1041.88 10V103.75H976.25V10H1041.88ZM1079.38 10V28.75H1088.75V47.5H1098.12V10H1126.25V103.75H1098.12V75.625H1088.75V56.875H1079.38V103.75H1051.25V10H1079.38ZM1163.75 47.5H1201.25V66.25H1163.75V85H1201.25V103.75H1135.62V10H1201.25V28.75H1163.75V47.5ZM1238.75 28.75V85H1248.12V28.75H1238.75ZM1276.25 10V103.75H1210.62V10H1276.25ZM1313.75 10V47.5H1323.12V10H1351.25V47.5H1341.88V56.875H1351.25V103.75H1323.12V66.25H1313.75V103.75H1285.62V56.875H1295V47.5H1285.62V10H1313.75Z"/>
</mask>
<path d="M48.125 10V28.75H57.5V47.5H76.25V28.75H85.625V10H113.75V103.75H85.625V66.25H76.25V85H57.5V66.25H48.125V103.75H20V10H48.125ZM151.25 28.75V85H160.625V28.75H151.25ZM188.75 10V103.75H123.125V10H188.75ZM235.625 103.75V66.25H226.25V103.75H198.125V10H263.75V47.5H254.375V56.875H263.75V103.75H235.625ZM226.25 28.75V47.5H235.625V28.75H226.25ZM301.25 47.5H338.75V66.25H301.25V85H338.75V103.75H273.125V10H338.75V28.75H301.25V47.5ZM413.75 47.5H451.25V66.25H413.75V103.75H385.625V10H451.25V28.75H413.75V47.5ZM498.125 103.75V66.25H488.75V103.75H460.625V10H526.25V47.5H516.875V56.875H526.25V103.75H498.125ZM488.75 28.75V47.5H498.125V28.75H488.75ZM563.75 28.75V85H573.125V28.75H563.75ZM601.25 10V103.75H535.625V10H601.25ZM638.75 10V28.75H648.125V47.5H666.875V28.75H676.25V10H704.375V103.75H676.25V66.25H666.875V85H648.125V66.25H638.75V103.75H610.625V10H638.75ZM779.375 28.75V85H788.75V28.75H779.375ZM807.5 10V19.375H816.875V94.375H807.5V103.75H751.25V10H807.5ZM854.375 47.5H891.875V66.25H854.375V85H891.875V103.75H826.25V10H891.875V28.75H854.375V47.5ZM929.375 10V85H938.75V10H966.875V75.625H957.5V94.375H948.125V103.75H920V94.375H910.625V75.625H901.25V10H929.375ZM1004.38 28.75V85H1013.75V28.75H1004.38ZM1041.88 10V103.75H976.25V10H1041.88ZM1079.38 10V28.75H1088.75V47.5H1098.12V10H1126.25V103.75H1098.12V75.625H1088.75V56.875H1079.38V103.75H1051.25V10H1079.38ZM1163.75 47.5H1201.25V66.25H1163.75V85H1201.25V103.75H1135.62V10H1201.25V28.75H1163.75V47.5ZM1238.75 28.75V85H1248.12V28.75H1238.75ZM1276.25 10V103.75H1210.62V10H1276.25ZM1313.75 10V47.5H1323.12V10H1351.25V47.5H1341.88V56.875H1351.25V103.75H1323.12V66.25H1313.75V103.75H1285.62V56.875H1295V47.5H1285.62V10H1313.75Z" fill="white"/>
<path d="M48.125 10H58.125V0H48.125V10ZM48.125 28.75H38.125V38.75H48.125V28.75ZM57.5 28.75H67.5V18.75H57.5V28.75ZM57.5 47.5H47.5V57.5H57.5V47.5ZM76.25 47.5V57.5H86.25V47.5H76.25ZM76.25 28.75V18.75H66.25V28.75H76.25ZM85.625 28.75V38.75H95.625V28.75H85.625ZM85.625 10V0H75.625V10H85.625ZM113.75 10H123.75V0H113.75V10ZM113.75 103.75V113.75H123.75V103.75H113.75ZM85.625 103.75H75.625V113.75H85.625V103.75ZM85.625 66.25H95.625V56.25H85.625V66.25ZM76.25 66.25V56.25H66.25V66.25H76.25ZM76.25 85V95H86.25V85H76.25ZM57.5 85H47.5V95H57.5V85ZM57.5 66.25H67.5V56.25H57.5V66.25ZM48.125 66.25V56.25H38.125V66.25H48.125ZM48.125 103.75V113.75H58.125V103.75H48.125ZM20 103.75H10V113.75H20V103.75ZM20 10V0H10V10H20ZM48.125 10H38.125V28.75H48.125H58.125V10H48.125ZM48.125 28.75V38.75H57.5V28.75V18.75H48.125V28.75ZM57.5 28.75H47.5V47.5H57.5H67.5V28.75H57.5ZM57.5 47.5V57.5H76.25V47.5V37.5H57.5V47.5ZM76.25 47.5H86.25V28.75H76.25H66.25V47.5H76.25ZM76.25 28.75V38.75H85.625V28.75V18.75H76.25V28.75ZM85.625 28.75H95.625V10H85.625H75.625V28.75H85.625ZM85.625 10V20H113.75V10V0H85.625V10ZM113.75 10H103.75V103.75H113.75H123.75V10H113.75ZM113.75 103.75V93.75H85.625V103.75V113.75H113.75V103.75ZM85.625 103.75H95.625V66.25H85.625H75.625V103.75H85.625ZM85.625 66.25V56.25H76.25V66.25V76.25H85.625V66.25ZM76.25 66.25H66.25V85H76.25H86.25V66.25H76.25ZM76.25 85V75H57.5V85V95H76.25V85ZM57.5 85H67.5V66.25H57.5H47.5V85H57.5ZM57.5 66.25V56.25H48.125V66.25V76.25H57.5V66.25ZM48.125 66.25H38.125V103.75H48.125H58.125V66.25H48.125ZM48.125 103.75V93.75H20V103.75V113.75H48.125V103.75ZM20 103.75H30V10H20H10V103.75H20ZM20 10V20H48.125V10V0H20V10ZM151.25 28.75V18.75H141.25V28.75H151.25ZM151.25 85H141.25V95H151.25V85ZM160.625 85V95H170.625V85H160.625ZM160.625 28.75H170.625V18.75H160.625V28.75ZM188.75 10H198.75V0H188.75V10ZM188.75 103.75V113.75H198.75V103.75H188.75ZM123.125 103.75H113.125V113.75H123.125V103.75ZM123.125 10V0H113.125V10H123.125ZM151.25 28.75H141.25V85H151.25H161.25V28.75H151.25ZM151.25 85V95H160.625V85V75H151.25V85ZM160.625 85H170.625V28.75H160.625H150.625V85H160.625ZM160.625 28.75V18.75H151.25V28.75V38.75H160.625V28.75ZM188.75 10H178.75V103.75H188.75H198.75V10H188.75ZM188.75 103.75V93.75H123.125V103.75V113.75H188.75V103.75ZM123.125 103.75H133.125V10H123.125H113.125V103.75H123.125ZM123.125 10V20H188.75V10V0H123.125V10ZM235.625 103.75H225.625V113.75H235.625V103.75ZM235.625 66.25H245.625V56.25H235.625V66.25ZM226.25 66.25V56.25H216.25V66.25H226.25ZM226.25 103.75V113.75H236.25V103.75H226.25ZM198.125 103.75H188.125V113.75H198.125V103.75ZM198.125 10V0H188.125V10H198.125ZM263.75 10H273.75V0H263.75V10ZM263.75 47.5V57.5H273.75V47.5H263.75ZM254.375 47.5V37.5H244.375V47.5H254.375ZM254.375 56.875H244.375V66.875H254.375V56.875ZM263.75 56.875H273.75V46.875H263.75V56.875ZM263.75 103.75V113.75H273.75V103.75H263.75ZM226.25 28.75V18.75H216.25V28.75H226.25ZM226.25 47.5H216.25V57.5H226.25V47.5ZM235.625 47.5V57.5H245.625V47.5H235.625ZM235.625 28.75H245.625V18.75H235.625V28.75ZM235.625 103.75H245.625V66.25H235.625H225.625V103.75H235.625ZM235.625 66.25V56.25H226.25V66.25V76.25H235.625V66.25ZM226.25 66.25H216.25V103.75H226.25H236.25V66.25H226.25ZM226.25 103.75V93.75H198.125V103.75V113.75H226.25V103.75ZM198.125 103.75H208.125V10H198.125H188.125V103.75H198.125ZM198.125 10V20H263.75V10V0H198.125V10ZM263.75 10H253.75V47.5H263.75H273.75V10H263.75ZM263.75 47.5V37.5H254.375V47.5V57.5H263.75V47.5ZM254.375 47.5H244.375V56.875H254.375H264.375V47.5H254.375ZM254.375 56.875V66.875H263.75V56.875V46.875H254.375V56.875ZM263.75 56.875H253.75V103.75H263.75H273.75V56.875H263.75ZM263.75 103.75V93.75H235.625V103.75V113.75H263.75V103.75ZM226.25 28.75H216.25V47.5H226.25H236.25V28.75H226.25ZM226.25 47.5V57.5H235.625V47.5V37.5H226.25V47.5ZM235.625 47.5H245.625V28.75H235.625H225.625V47.5H235.625ZM235.625 28.75V18.75H226.25V28.75V38.75H235.625V28.75ZM301.25 47.5H291.25V57.5H301.25V47.5ZM338.75 47.5H348.75V37.5H338.75V47.5ZM338.75 66.25V76.25H348.75V66.25H338.75ZM301.25 66.25V56.25H291.25V66.25H301.25ZM301.25 85H291.25V95H301.25V85ZM338.75 85H348.75V75H338.75V85ZM338.75 103.75V113.75H348.75V103.75H338.75ZM273.125 103.75H263.125V113.75H273.125V103.75ZM273.125 10V0H263.125V10H273.125ZM338.75 10H348.75V0H338.75V10ZM338.75 28.75V38.75H348.75V28.75H338.75ZM301.25 28.75V18.75H291.25V28.75H301.25ZM301.25 47.5V57.5H338.75V47.5V37.5H301.25V47.5ZM338.75 47.5H328.75V66.25H338.75H348.75V47.5H338.75ZM338.75 66.25V56.25H301.25V66.25V76.25H338.75V66.25ZM301.25 66.25H291.25V85H301.25H311.25V66.25H301.25ZM301.25 85V95H338.75V85V75H301.25V85ZM338.75 85H328.75V103.75H338.75H348.75V85H338.75ZM338.75 103.75V93.75H273.125V103.75V113.75H338.75V103.75ZM273.125 103.75H283.125V10H273.125H263.125V103.75H273.125ZM273.125 10V20H338.75V10V0H273.125V10ZM338.75 10H328.75V28.75H338.75H348.75V10H338.75ZM338.75 28.75V18.75H301.25V28.75V38.75H338.75V28.75ZM301.25 28.75H291.25V47.5H301.25H311.25V28.75H301.25ZM413.75 47.5H403.75V57.5H413.75V47.5ZM451.25 47.5H461.25V37.5H451.25V47.5ZM451.25 66.25V76.25H461.25V66.25H451.25ZM413.75 66.25V56.25H403.75V66.25H413.75ZM413.75 103.75V113.75H423.75V103.75H413.75ZM385.625 103.75H375.625V113.75H385.625V103.75ZM385.625 10V0H375.625V10H385.625ZM451.25 10H461.25V0H451.25V10ZM451.25 28.75V38.75H461.25V28.75H451.25ZM413.75 28.75V18.75H403.75V28.75H413.75ZM413.75 47.5V57.5H451.25V47.5V37.5H413.75V47.5ZM451.25 47.5H441.25V66.25H451.25H461.25V47.5H451.25ZM451.25 66.25V56.25H413.75V66.25V76.25H451.25V66.25ZM413.75 66.25H403.75V103.75H413.75H423.75V66.25H413.75ZM413.75 103.75V93.75H385.625V103.75V113.75H413.75V103.75ZM385.625 103.75H395.625V10H385.625H375.625V103.75H385.625ZM385.625 10V20H451.25V10V0H385.625V10ZM451.25 10H441.25V28.75H451.25H461.25V10H451.25ZM451.25 28.75V18.75H413.75V28.75V38.75H451.25V28.75ZM413.75 28.75H403.75V47.5H413.75H423.75V28.75H413.75ZM498.125 103.75H488.125V113.75H498.125V103.75ZM498.125 66.25H508.125V56.25H498.125V66.25ZM488.75 66.25V56.25H478.75V66.25H488.75ZM488.75 103.75V113.75H498.75V103.75H488.75ZM460.625 103.75H450.625V113.75H460.625V103.75ZM460.625 10V0H450.625V10H460.625ZM526.25 10H536.25V0H526.25V10ZM526.25 47.5V57.5H536.25V47.5H526.25ZM516.875 47.5V37.5H506.875V47.5H516.875ZM516.875 56.875H506.875V66.875H516.875V56.875ZM526.25 56.875H536.25V46.875H526.25V56.875ZM526.25 103.75V113.75H536.25V103.75H526.25ZM488.75 28.75V18.75H478.75V28.75H488.75ZM488.75 47.5H478.75V57.5H488.75V47.5ZM498.125 47.5V57.5H508.125V47.5H498.125ZM498.125 28.75H508.125V18.75H498.125V28.75ZM498.125 103.75H508.125V66.25H498.125H488.125V103.75H498.125ZM498.125 66.25V56.25H488.75V66.25V76.25H498.125V66.25ZM488.75 66.25H478.75V103.75H488.75H498.75V66.25H488.75ZM488.75 103.75V93.75H460.625V103.75V113.75H488.75V103.75ZM460.625 103.75H470.625V10H460.625H450.625V103.75H460.625ZM460.625 10V20H526.25V10V0H460.625V10ZM526.25 10H516.25V47.5H526.25H536.25V10H526.25ZM526.25 47.5V37.5H516.875V47.5V57.5H526.25V47.5ZM516.875 47.5H506.875V56.875H516.875H526.875V47.5H516.875ZM516.875 56.875V66.875H526.25V56.875V46.875H516.875V56.875ZM526.25 56.875H516.25V103.75H526.25H536.25V56.875H526.25ZM526.25 103.75V93.75H498.125V103.75V113.75H526.25V103.75ZM488.75 28.75H478.75V47.5H488.75H498.75V28.75H488.75ZM488.75 47.5V57.5H498.125V47.5V37.5H488.75V47.5ZM498.125 47.5H508.125V28.75H498.125H488.125V47.5H498.125ZM498.125 28.75V18.75H488.75V28.75V38.75H498.125V28.75ZM563.75 28.75V18.75H553.75V28.75H563.75ZM563.75 85H553.75V95H563.75V85ZM573.125 85V95H583.125V85H573.125ZM573.125 28.75H583.125V18.75H573.125V28.75ZM601.25 10H611.25V0H601.25V10ZM601.25 103.75V113.75H611.25V103.75H601.25ZM535.625 103.75H525.625V113.75H535.625V103.75ZM535.625 10V0H525.625V10H535.625ZM563.75 28.75H553.75V85H563.75H573.75V28.75H563.75ZM563.75 85V95H573.125V85V75H563.75V85ZM573.125 85H583.125V28.75H573.125H563.125V85H573.125ZM573.125 28.75V18.75H563.75V28.75V38.75H573.125V28.75ZM601.25 10H591.25V103.75H601.25H611.25V10H601.25ZM601.25 103.75V93.75H535.625V103.75V113.75H601.25V103.75ZM535.625 103.75H545.625V10H535.625H525.625V103.75H535.625ZM535.625 10V20H601.25V10V0H535.625V10ZM638.75 10H648.75V0H638.75V10ZM638.75 28.75H628.75V38.75H638.75V28.75ZM648.125 28.75H658.125V18.75H648.125V28.75ZM648.125 47.5H638.125V57.5H648.125V47.5ZM666.875 47.5V57.5H676.875V47.5H666.875ZM666.875 28.75V18.75H656.875V28.75H666.875ZM676.25 28.75V38.75H686.25V28.75H676.25ZM676.25 10V0H666.25V10H676.25ZM704.375 10H714.375V0H704.375V10ZM704.375 103.75V113.75H714.375V103.75H704.375ZM676.25 103.75H666.25V113.75H676.25V103.75ZM676.25 66.25H686.25V56.25H676.25V66.25ZM666.875 66.25V56.25H656.875V66.25H666.875ZM666.875 85V95H676.875V85H666.875ZM648.125 85H638.125V95H648.125V85ZM648.125 66.25H658.125V56.25H648.125V66.25ZM638.75 66.25V56.25H628.75V66.25H638.75ZM638.75 103.75V113.75H648.75V103.75H638.75ZM610.625 103.75H600.625V113.75H610.625V103.75ZM610.625 10V0H600.625V10H610.625ZM638.75 10H628.75V28.75H638.75H648.75V10H638.75ZM638.75 28.75V38.75H648.125V28.75V18.75H638.75V28.75ZM648.125 28.75H638.125V47.5H648.125H658.125V28.75H648.125ZM648.125 47.5V57.5H666.875V47.5V37.5H648.125V47.5ZM666.875 47.5H676.875V28.75H666.875H656.875V47.5H666.875ZM666.875 28.75V38.75H676.25V28.75V18.75H666.875V28.75ZM676.25 28.75H686.25V10H676.25H666.25V28.75H676.25ZM676.25 10V20H704.375V10V0H676.25V10ZM704.375 10H694.375V103.75H704.375H714.375V10H704.375ZM704.375 103.75V93.75H676.25V103.75V113.75H704.375V103.75ZM676.25 103.75H686.25V66.25H676.25H666.25V103.75H676.25ZM676.25 66.25V56.25H666.875V66.25V76.25H676.25V66.25ZM666.875 66.25H656.875V85H666.875H676.875V66.25H666.875ZM666.875 85V75H648.125V85V95H666.875V85ZM648.125 85H658.125V66.25H648.125H638.125V85H648.125ZM648.125 66.25V56.25H638.75V66.25V76.25H648.125V66.25ZM638.75 66.25H628.75V103.75H638.75H648.75V66.25H638.75ZM638.75 103.75V93.75H610.625V103.75V113.75H638.75V103.75ZM610.625 103.75H620.625V10H610.625H600.625V103.75H610.625ZM610.625 10V20H638.75V10V0H610.625V10ZM779.375 28.75V18.75H769.375V28.75H779.375ZM779.375 85H769.375V95H779.375V85ZM788.75 85V95H798.75V85H788.75ZM788.75 28.75H798.75V18.75H788.75V28.75ZM807.5 10H817.5V0H807.5V10ZM807.5 19.375H797.5V29.375H807.5V19.375ZM816.875 19.375H826.875V9.375H816.875V19.375ZM816.875 94.375V104.375H826.875V94.375H816.875ZM807.5 94.375V84.375H797.5V94.375H807.5ZM807.5 103.75V113.75H817.5V103.75H807.5ZM751.25 103.75H741.25V113.75H751.25V103.75ZM751.25 10V0H741.25V10H751.25ZM779.375 28.75H769.375V85H779.375H789.375V28.75H779.375ZM779.375 85V95H788.75V85V75H779.375V85ZM788.75 85H798.75V28.75H788.75H778.75V85H788.75ZM788.75 28.75V18.75H779.375V28.75V38.75H788.75V28.75ZM807.5 10H797.5V19.375H807.5H817.5V10H807.5ZM807.5 19.375V29.375H816.875V19.375V9.375H807.5V19.375ZM816.875 19.375H806.875V94.375H816.875H826.875V19.375H816.875ZM816.875 94.375V84.375H807.5V94.375V104.375H816.875V94.375ZM807.5 94.375H797.5V103.75H807.5H817.5V94.375H807.5ZM807.5 103.75V93.75H751.25V103.75V113.75H807.5V103.75ZM751.25 103.75H761.25V10H751.25H741.25V103.75H751.25ZM751.25 10V20H807.5V10V0H751.25V10ZM854.375 47.5H844.375V57.5H854.375V47.5ZM891.875 47.5H901.875V37.5H891.875V47.5ZM891.875 66.25V76.25H901.875V66.25H891.875ZM854.375 66.25V56.25H844.375V66.25H854.375ZM854.375 85H844.375V95H854.375V85ZM891.875 85H901.875V75H891.875V85ZM891.875 103.75V113.75H901.875V103.75H891.875ZM826.25 103.75H816.25V113.75H826.25V103.75ZM826.25 10V0H816.25V10H826.25ZM891.875 10H901.875V0H891.875V10ZM891.875 28.75V38.75H901.875V28.75H891.875ZM854.375 28.75V18.75H844.375V28.75H854.375ZM854.375 47.5V57.5H891.875V47.5V37.5H854.375V47.5ZM891.875 47.5H881.875V66.25H891.875H901.875V47.5H891.875ZM891.875 66.25V56.25H854.375V66.25V76.25H891.875V66.25ZM854.375 66.25H844.375V85H854.375H864.375V66.25H854.375ZM854.375 85V95H891.875V85V75H854.375V85ZM891.875 85H881.875V103.75H891.875H901.875V85H891.875ZM891.875 103.75V93.75H826.25V103.75V113.75H891.875V103.75ZM826.25 103.75H836.25V10H826.25H816.25V103.75H826.25ZM826.25 10V20H891.875V10V0H826.25V10ZM891.875 10H881.875V28.75H891.875H901.875V10H891.875ZM891.875 28.75V18.75H854.375V28.75V38.75H891.875V28.75ZM854.375 28.75H844.375V47.5H854.375H864.375V28.75H854.375ZM929.375 10H939.375V0H929.375V10ZM929.375 85H919.375V95H929.375V85ZM938.75 85V95H948.75V85H938.75ZM938.75 10V0H928.75V10H938.75ZM966.875 10H976.875V0H966.875V10ZM966.875 75.625V85.625H976.875V75.625H966.875ZM957.5 75.625V65.625H947.5V75.625H957.5ZM957.5 94.375V104.375H967.5V94.375H957.5ZM948.125 94.375V84.375H938.125V94.375H948.125ZM948.125 103.75V113.75H958.125V103.75H948.125ZM920 103.75H910V113.75H920V103.75ZM920 94.375H930V84.375H920V94.375ZM910.625 94.375H900.625V104.375H910.625V94.375ZM910.625 75.625H920.625V65.625H910.625V75.625ZM901.25 75.625H891.25V85.625H901.25V75.625ZM901.25 10V0H891.25V10H901.25ZM929.375 10H919.375V85H929.375H939.375V10H929.375ZM929.375 85V95H938.75V85V75H929.375V85ZM938.75 85H948.75V10H938.75H928.75V85H938.75ZM938.75 10V20H966.875V10V0H938.75V10ZM966.875 10H956.875V75.625H966.875H976.875V10H966.875ZM966.875 75.625V65.625H957.5V75.625V85.625H966.875V75.625ZM957.5 75.625H947.5V94.375H957.5H967.5V75.625H957.5ZM957.5 94.375V84.375H948.125V94.375V104.375H957.5V94.375ZM948.125 94.375H938.125V103.75H948.125H958.125V94.375H948.125ZM948.125 103.75V93.75H920V103.75V113.75H948.125V103.75ZM920 103.75H930V94.375H920H910V103.75H920ZM920 94.375V84.375H910.625V94.375V104.375H920V94.375ZM910.625 94.375H920.625V75.625H910.625H900.625V94.375H910.625ZM910.625 75.625V65.625H901.25V75.625V85.625H910.625V75.625ZM901.25 75.625H911.25V10H901.25H891.25V75.625H901.25ZM901.25 10V20H929.375V10V0H901.25V10ZM1004.38 28.75V18.75H994.375V28.75H1004.38ZM1004.38 85H994.375V95H1004.38V85ZM1013.75 85V95H1023.75V85H1013.75ZM1013.75 28.75H1023.75V18.75H1013.75V28.75ZM1041.88 10H1051.88V0H1041.88V10ZM1041.88 103.75V113.75H1051.88V103.75H1041.88ZM976.25 103.75H966.25V113.75H976.25V103.75ZM976.25 10V0H966.25V10H976.25ZM1004.38 28.75H994.375V85H1004.38H1014.38V28.75H1004.38ZM1004.38 85V95H1013.75V85V75H1004.38V85ZM1013.75 85H1023.75V28.75H1013.75H1003.75V85H1013.75ZM1013.75 28.75V18.75H1004.38V28.75V38.75H1013.75V28.75ZM1041.88 10H1031.88V103.75H1041.88H1051.88V10H1041.88ZM1041.88 103.75V93.75H976.25V103.75V113.75H1041.88V103.75ZM976.25 103.75H986.25V10H976.25H966.25V103.75H976.25ZM976.25 10V20H1041.88V10V0H976.25V10ZM1079.38 10H1089.38V0H1079.38V10ZM1079.38 28.75H1069.38V38.75H1079.38V28.75ZM1088.75 28.75H1098.75V18.75H1088.75V28.75ZM1088.75 47.5H1078.75V57.5H1088.75V47.5ZM1098.12 47.5V57.5H1108.12V47.5H1098.12ZM1098.12 10V0H1088.12V10H1098.12ZM1126.25 10H1136.25V0H1126.25V10ZM1126.25 103.75V113.75H1136.25V103.75H1126.25ZM1098.12 103.75H1088.12V113.75H1098.12V103.75ZM1098.12 75.625H1108.12V65.625H1098.12V75.625ZM1088.75 75.625H1078.75V85.625H1088.75V75.625ZM1088.75 56.875H1098.75V46.875H1088.75V56.875ZM1079.38 56.875V46.875H1069.38V56.875H1079.38ZM1079.38 103.75V113.75H1089.38V103.75H1079.38ZM1051.25 103.75H1041.25V113.75H1051.25V103.75ZM1051.25 10V0H1041.25V10H1051.25ZM1079.38 10H1069.38V28.75H1079.38H1089.38V10H1079.38ZM1079.38 28.75V38.75H1088.75V28.75V18.75H1079.38V28.75ZM1088.75 28.75H1078.75V47.5H1088.75H1098.75V28.75H1088.75ZM1088.75 47.5V57.5H1098.12V47.5V37.5H1088.75V47.5ZM1098.12 47.5H1108.12V10H1098.12H1088.12V47.5H1098.12ZM1098.12 10V20H1126.25V10V0H1098.12V10ZM1126.25 10H1116.25V103.75H1126.25H1136.25V10H1126.25ZM1126.25 103.75V93.75H1098.12V103.75V113.75H1126.25V103.75ZM1098.12 103.75H1108.12V75.625H1098.12H1088.12V103.75H1098.12ZM1098.12 75.625V65.625H1088.75V75.625V85.625H1098.12V75.625ZM1088.75 75.625H1098.75V56.875H1088.75H1078.75V75.625H1088.75ZM1088.75 56.875V46.875H1079.38V56.875V66.875H1088.75V56.875ZM1079.38 56.875H1069.38V103.75H1079.38H1089.38V56.875H1079.38ZM1079.38 103.75V93.75H1051.25V103.75V113.75H1079.38V103.75ZM1051.25 103.75H1061.25V10H1051.25H1041.25V103.75H1051.25ZM1051.25 10V20H1079.38V10V0H1051.25V10ZM1163.75 47.5H1153.75V57.5H1163.75V47.5ZM1201.25 47.5H1211.25V37.5H1201.25V47.5ZM1201.25 66.25V76.25H1211.25V66.25H1201.25ZM1163.75 66.25V56.25H1153.75V66.25H1163.75ZM1163.75 85H1153.75V95H1163.75V85ZM1201.25 85H1211.25V75H1201.25V85ZM1201.25 103.75V113.75H1211.25V103.75H1201.25ZM1135.62 103.75H1125.62V113.75H1135.62V103.75ZM1135.62 10V0H1125.62V10H1135.62ZM1201.25 10H1211.25V0H1201.25V10ZM1201.25 28.75V38.75H1211.25V28.75H1201.25ZM1163.75 28.75V18.75H1153.75V28.75H1163.75ZM1163.75 47.5V57.5H1201.25V47.5V37.5H1163.75V47.5ZM1201.25 47.5H1191.25V66.25H1201.25H1211.25V47.5H1201.25ZM1201.25 66.25V56.25H1163.75V66.25V76.25H1201.25V66.25ZM1163.75 66.25H1153.75V85H1163.75H1173.75V66.25H1163.75ZM1163.75 85V95H1201.25V85V75H1163.75V85ZM1201.25 85H1191.25V103.75H1201.25H1211.25V85H1201.25ZM1201.25 103.75V93.75H1135.62V103.75V113.75H1201.25V103.75ZM1135.62 103.75H1145.62V10H1135.62H1125.62V103.75H1135.62ZM1135.62 10V20H1201.25V10V0H1135.62V10ZM1201.25 10H1191.25V28.75H1201.25H1211.25V10H1201.25ZM1201.25 28.75V18.75H1163.75V28.75V38.75H1201.25V28.75ZM1163.75 28.75H1153.75V47.5H1163.75H1173.75V28.75H1163.75ZM1238.75 28.75V18.75H1228.75V28.75H1238.75ZM1238.75 85H1228.75V95H1238.75V85ZM1248.12 85V95H1258.12V85H1248.12ZM1248.12 28.75H1258.12V18.75H1248.12V28.75ZM1276.25 10H1286.25V0H1276.25V10ZM1276.25 103.75V113.75H1286.25V103.75H1276.25ZM1210.62 103.75H1200.62V113.75H1210.62V103.75ZM1210.62 10V0H1200.62V10H1210.62ZM1238.75 28.75H1228.75V85H1238.75H1248.75V28.75H1238.75ZM1238.75 85V95H1248.12V85V75H1238.75V85ZM1248.12 85H1258.12V28.75H1248.12H1238.12V85H1248.12ZM1248.12 28.75V18.75H1238.75V28.75V38.75H1248.12V28.75ZM1276.25 10H1266.25V103.75H1276.25H1286.25V10H1276.25ZM1276.25 103.75V93.75H1210.62V103.75V113.75H1276.25V103.75ZM1210.62 103.75H1220.62V10H1210.62H1200.62V103.75H1210.62ZM1210.62 10V20H1276.25V10V0H1210.62V10ZM1313.75 10H1323.75V0H1313.75V10ZM1313.75 47.5H1303.75V57.5H1313.75V47.5ZM1323.12 47.5V57.5H1333.12V47.5H1323.12ZM1323.12 10V0H1313.12V10H1323.12ZM1351.25 10H1361.25V0H1351.25V10ZM1351.25 47.5V57.5H1361.25V47.5H1351.25ZM1341.88 47.5V37.5H1331.88V47.5H1341.88ZM1341.88 56.875H1331.88V66.875H1341.88V56.875ZM1351.25 56.875H1361.25V46.875H1351.25V56.875ZM1351.25 103.75V113.75H1361.25V103.75H1351.25ZM1323.12 103.75H1313.12V113.75H1323.12V103.75ZM1323.12 66.25H1333.12V56.25H1323.12V66.25ZM1313.75 66.25V56.25H1303.75V66.25H1313.75ZM1313.75 103.75V113.75H1323.75V103.75H1313.75ZM1285.62 103.75H1275.62V113.75H1285.62V103.75ZM1285.62 56.875V46.875H1275.62V56.875H1285.62ZM1295 56.875V66.875H1305V56.875H1295ZM1295 47.5H1305V37.5H1295V47.5ZM1285.62 47.5H1275.62V57.5H1285.62V47.5ZM1285.62 10V0H1275.62V10H1285.62ZM1313.75 10H1303.75V47.5H1313.75H1323.75V10H1313.75ZM1313.75 47.5V57.5H1323.12V47.5V37.5H1313.75V47.5ZM1323.12 47.5H1333.12V10H1323.12H1313.12V47.5H1323.12ZM1323.12 10V20H1351.25V10V0H1323.12V10ZM1351.25 10H1341.25V47.5H1351.25H1361.25V10H1351.25ZM1351.25 47.5V37.5H1341.88V47.5V57.5H1351.25V47.5ZM1341.88 47.5H1331.88V56.875H1341.88H1351.88V47.5H1341.88ZM1341.88 56.875V66.875H1351.25V56.875V46.875H1341.88V56.875ZM1351.25 56.875H1341.25V103.75H1351.25H1361.25V56.875H1351.25ZM1351.25 103.75V93.75H1323.12V103.75V113.75H1351.25V103.75ZM1323.12 103.75H1333.12V66.25H1323.12H1313.12V103.75H1323.12ZM1323.12 66.25V56.25H1313.75V66.25V76.25H1323.12V66.25ZM1313.75 66.25H1303.75V103.75H1313.75H1323.75V66.25H1313.75ZM1313.75 103.75V93.75H1285.62V103.75V113.75H1313.75V103.75ZM1285.62 103.75H1295.62V56.875H1285.62H1275.62V103.75H1285.62ZM1285.62 56.875V66.875H1295V56.875V46.875H1285.62V56.875ZM1295 56.875H1305V47.5H1295H1285V56.875H1295ZM1295 47.5V37.5H1285.62V47.5V57.5H1295V47.5ZM1285.62 47.5H1295.62V10H1285.62H1275.62V47.5H1285.62ZM1285.62 10V20H1313.75V10V0H1285.62V10Z" fill="black" mask="url(#path-1-outside-1_2333_12)"/>
</g>
<defs>
<filter id="filter0_d_2333_12" x="0" y="0" width="1371.25" height="133.75" filterUnits="userSpaceOnUse" color-interpolation-filters="sRGB">
<feFlood flood-opacity="0" result="BackgroundImageFix"/>
<feColorMatrix in="SourceAlpha" type="matrix" values="0 0 0 0 0 0 0 0 0 0 0 0 0 0 0 0 0 0 127 0" result="hardAlpha"/>
<feOffset dy="10"/>
<feGaussianBlur stdDeviation="5"/>
<feComposite in2="hardAlpha" operator="out"/>
<feColorMatrix type="matrix" values="0 0 0 0 0.333333 0 0 0 0 0.333333 0 0 0 0 0.333333 0 0 0 0.25 0"/>
<feBlend mode="normal" in2="BackgroundImageFix" result="effect1_dropShadow_2333_12"/>
<feBlend mode="normal" in="SourceGraphic" in2="effect1_dropShadow_2333_12" result="shape"/>
</filter>
</defs>
</svg>
