<svg width="622" height="134" viewBox="0 0 622 134" fill="none" xmlns="http://www.w3.org/2000/svg">
<g filter="url(#filter0_d_2332_2)">
<mask id="path-1-outside-1_2332_2" maskUnits="userSpaceOnUse" x="9.3125" y="-0.25" width="602" height="114" fill="black">
<rect fill="white" x="9.3125" y="-0.25" width="602" height="114"/>
<path d="M48.125 28.75V85H57.5V28.75H48.125ZM85.625 10V103.75H20V10H85.625ZM123.125 10V85H132.5V10H160.625V75.625H151.25V94.375H141.875V103.75H113.75V94.375H104.375V75.625H95V10H123.125ZM198.125 47.5H235.625V66.25H198.125V85H235.625V103.75H170V10H235.625V28.75H198.125V47.5ZM282.5 103.75V66.25H273.125V103.75H245V10H310.625V47.5H301.25V56.875H310.625V103.75H282.5ZM273.125 28.75V47.5H282.5V28.75H273.125ZM348.125 10V85H357.5V10H385.625V75.625H376.25V94.375H366.875V103.75H338.75V94.375H329.375V75.625H320V10H348.125ZM423.125 10V103.75H395V10H423.125ZM460.625 47.5H498.125V66.25H460.625V85H498.125V103.75H432.5V10H498.125V28.75H460.625V47.5ZM591.875 66.25V103.75H563.75V85H545V103.75H516.875V66.25H507.5V10H535.625V66.25H545V28.75H563.75V66.25H573.125V10H601.25V66.25H591.875Z"/>
</mask>
<path d="M48.125 28.75V85H57.5V28.75H48.125ZM85.625 10V103.75H20V10H85.625ZM123.125 10V85H132.5V10H160.625V75.625H151.25V94.375H141.875V103.75H113.75V94.375H104.375V75.625H95V10H123.125ZM198.125 47.5H235.625V66.25H198.125V85H235.625V103.75H170V10H235.625V28.75H198.125V47.5ZM282.5 103.75V66.25H273.125V103.75H245V10H310.625V47.5H301.25V56.875H310.625V103.75H282.5ZM273.125 28.75V47.5H282.5V28.75H273.125ZM348.125 10V85H357.5V10H385.625V75.625H376.25V94.375H366.875V103.75H338.75V94.375H329.375V75.625H320V10H348.125ZM423.125 10V103.75H395V10H423.125ZM460.625 47.5H498.125V66.25H460.625V85H498.125V103.75H432.5V10H498.125V28.75H460.625V47.5ZM591.875 66.25V103.75H563.75V85H545V103.75H516.875V66.25H507.5V10H535.625V66.25H545V28.75H563.75V66.25H573.125V10H601.25V66.25H591.875Z" fill="white"/>
<path d="M48.125 28.75V18.75H38.125V28.75H48.125ZM48.125 85H38.125V95H48.125V85ZM57.5 85V95H67.5V85H57.5ZM57.5 28.75H67.5V18.75H57.5V28.75ZM85.625 10H95.625V0H85.625V10ZM85.625 103.75V113.75H95.625V103.75H85.625ZM20 103.75H10V113.75H20V103.75ZM20 10V0H10V10H20ZM48.125 28.75H38.125V85H48.125H58.125V28.75H48.125ZM48.125 85V95H57.5V85V75H48.125V85ZM57.5 85H67.5V28.75H57.5H47.5V85H57.5ZM57.5 28.75V18.75H48.125V28.75V38.75H57.5V28.75ZM85.625 10H75.625V103.75H85.625H95.625V10H85.625ZM85.625 103.75V93.75H20V103.75V113.75H85.625V103.75ZM20 103.75H30V10H20H10V103.75H20ZM20 10V20H85.625V10V0H20V10ZM123.125 10H133.125V0H123.125V10ZM123.125 85H113.125V95H123.125V85ZM132.5 85V95H142.5V85H132.5ZM132.5 10V0H122.5V10H132.5ZM160.625 10H170.625V0H160.625V10ZM160.625 75.625V85.625H170.625V75.625H160.625ZM151.25 75.625V65.625H141.25V75.625H151.25ZM151.25 94.375V104.375H161.25V94.375H151.25ZM141.875 94.375V84.375H131.875V94.375H141.875ZM141.875 103.75V113.75H151.875V103.75H141.875ZM113.75 103.75H103.75V113.75H113.75V103.75ZM113.75 94.375H123.75V84.375H113.75V94.375ZM104.375 94.375H94.375V104.375H104.375V94.375ZM104.375 75.625H114.375V65.625H104.375V75.625ZM95 75.625H85V85.625H95V75.625ZM95 10V0H85V10H95ZM123.125 10H113.125V85H123.125H133.125V10H123.125ZM123.125 85V95H132.5V85V75H123.125V85ZM132.5 85H142.5V10H132.5H122.5V85H132.5ZM132.5 10V20H160.625V10V0H132.5V10ZM160.625 10H150.625V75.625H160.625H170.625V10H160.625ZM160.625 75.625V65.625H151.25V75.625V85.625H160.625V75.625ZM151.25 75.625H141.25V94.375H151.25H161.25V75.625H151.25ZM151.25 94.375V84.375H141.875V94.375V104.375H151.25V94.375ZM141.875 94.375H131.875V103.75H141.875H151.875V94.375H141.875ZM141.875 103.75V93.75H113.75V103.75V113.75H141.875V103.75ZM113.75 103.75H123.75V94.375H113.75H103.75V103.75H113.75ZM113.75 94.375V84.375H104.375V94.375V104.375H113.75V94.375ZM104.375 94.375H114.375V75.625H104.375H94.375V94.375H104.375ZM104.375 75.625V65.625H95V75.625V85.625H104.375V75.625ZM95 75.625H105V10H95H85V75.625H95ZM95 10V20H123.125V10V0H95V10ZM198.125 47.5H188.125V57.5H198.125V47.5ZM235.625 47.5H245.625V37.5H235.625V47.5ZM235.625 66.25V76.25H245.625V66.25H235.625ZM198.125 66.25V56.25H188.125V66.25H198.125ZM198.125 85H188.125V95H198.125V85ZM235.625 85H245.625V75H235.625V85ZM235.625 103.75V113.75H245.625V103.75H235.625ZM170 103.75H160V113.75H170V103.75ZM170 10V0H160V10H170ZM235.625 10H245.625V0H235.625V10ZM235.625 28.75V38.75H245.625V28.75H235.625ZM198.125 28.75V18.75H188.125V28.75H198.125ZM198.125 47.5V57.5H235.625V47.5V37.5H198.125V47.5ZM235.625 47.5H225.625V66.25H235.625H245.625V47.5H235.625ZM235.625 66.25V56.25H198.125V66.25V76.25H235.625V66.25ZM198.125 66.25H188.125V85H198.125H208.125V66.25H198.125ZM198.125 85V95H235.625V85V75H198.125V85ZM235.625 85H225.625V103.75H235.625H245.625V85H235.625ZM235.625 103.75V93.75H170V103.75V113.75H235.625V103.75ZM170 103.75H180V10H170H160V103.75H170ZM170 10V20H235.625V10V0H170V10ZM235.625 10H225.625V28.75H235.625H245.625V10H235.625ZM235.625 28.75V18.75H198.125V28.75V38.75H235.625V28.75ZM198.125 28.75H188.125V47.5H198.125H208.125V28.75H198.125ZM282.5 103.75H272.5V113.75H282.5V103.75ZM282.5 66.25H292.5V56.25H282.5V66.25ZM273.125 66.25V56.25H263.125V66.25H273.125ZM273.125 103.75V113.75H283.125V103.75H273.125ZM245 103.75H235V113.75H245V103.75ZM245 10V0H235V10H245ZM310.625 10H320.625V0H310.625V10ZM310.625 47.5V57.5H320.625V47.5H310.625ZM301.25 47.5V37.5H291.25V47.5H301.25ZM301.25 56.875H291.25V66.875H301.25V56.875ZM310.625 56.875H320.625V46.875H310.625V56.875ZM310.625 103.75V113.75H320.625V103.75H310.625ZM273.125 28.75V18.75H263.125V28.75H273.125ZM273.125 47.5H263.125V57.5H273.125V47.5ZM282.5 47.5V57.5H292.5V47.5H282.5ZM282.5 28.75H292.5V18.75H282.5V28.75ZM282.5 103.75H292.5V66.25H282.5H272.5V103.75H282.5ZM282.5 66.25V56.25H273.125V66.25V76.25H282.5V66.25ZM273.125 66.25H263.125V103.75H273.125H283.125V66.25H273.125ZM273.125 103.75V93.75H245V103.75V113.75H273.125V103.75ZM245 103.75H255V10H245H235V103.75H245ZM245 10V20H310.625V10V0H245V10ZM310.625 10H300.625V47.5H310.625H320.625V10H310.625ZM310.625 47.5V37.5H301.25V47.5V57.5H310.625V47.5ZM301.25 47.5H291.25V56.875H301.25H311.25V47.5H301.25ZM301.25 56.875V66.875H310.625V56.875V46.875H301.25V56.875ZM310.625 56.875H300.625V103.75H310.625H320.625V56.875H310.625ZM310.625 103.75V93.75H282.5V103.75V113.75H310.625V103.75ZM273.125 28.75H263.125V47.5H273.125H283.125V28.75H273.125ZM273.125 47.5V57.5H282.5V47.5V37.5H273.125V47.5ZM282.5 47.5H292.5V28.75H282.5H272.5V47.5H282.5ZM282.5 28.75V18.75H273.125V28.75V38.75H282.5V28.75ZM348.125 10H358.125V0H348.125V10ZM348.125 85H338.125V95H348.125V85ZM357.5 85V95H367.5V85H357.5ZM357.5 10V0H347.5V10H357.5ZM385.625 10H395.625V0H385.625V10ZM385.625 75.625V85.625H395.625V75.625H385.625ZM376.25 75.625V65.625H366.25V75.625H376.25ZM376.25 94.375V104.375H386.25V94.375H376.25ZM366.875 94.375V84.375H356.875V94.375H366.875ZM366.875 103.75V113.75H376.875V103.75H366.875ZM338.75 103.75H328.75V113.75H338.75V103.75ZM338.75 94.375H348.75V84.375H338.75V94.375ZM329.375 94.375H319.375V104.375H329.375V94.375ZM329.375 75.625H339.375V65.625H329.375V75.625ZM320 75.625H310V85.625H320V75.625ZM320 10V0H310V10H320ZM348.125 10H338.125V85H348.125H358.125V10H348.125ZM348.125 85V95H357.5V85V75H348.125V85ZM357.5 85H367.5V10H357.5H347.5V85H357.5ZM357.5 10V20H385.625V10V0H357.5V10ZM385.625 10H375.625V75.625H385.625H395.625V10H385.625ZM385.625 75.625V65.625H376.25V75.625V85.625H385.625V75.625ZM376.25 75.625H366.25V94.375H376.25H386.25V75.625H376.25ZM376.25 94.375V84.375H366.875V94.375V104.375H376.25V94.375ZM366.875 94.375H356.875V103.75H366.875H376.875V94.375H366.875ZM366.875 103.75V93.75H338.75V103.75V113.75H366.875V103.75ZM338.75 103.75H348.75V94.375H338.75H328.75V103.75H338.75ZM338.75 94.375V84.375H329.375V94.375V104.375H338.75V94.375ZM329.375 94.375H339.375V75.625H329.375H319.375V94.375H329.375ZM329.375 75.625V65.625H320V75.625V85.625H329.375V75.625ZM320 75.625H330V10H320H310V75.625H320ZM320 10V20H348.125V10V0H320V10ZM423.125 10H433.125V0H423.125V10ZM423.125 103.75V113.75H433.125V103.75H423.125ZM395 103.75H385V113.75H395V103.75ZM395 10V0H385V10H395ZM423.125 10H413.125V103.75H423.125H433.125V10H423.125ZM423.125 103.75V93.75H395V103.75V113.75H423.125V103.75ZM395 103.75H405V10H395H385V103.75H395ZM395 10V20H423.125V10V0H395V10ZM460.625 47.5H450.625V57.5H460.625V47.5ZM498.125 47.5H508.125V37.5H498.125V47.5ZM498.125 66.25V76.25H508.125V66.25H498.125ZM460.625 66.25V56.25H450.625V66.25H460.625ZM460.625 85H450.625V95H460.625V85ZM498.125 85H508.125V75H498.125V85ZM498.125 103.75V113.75H508.125V103.75H498.125ZM432.5 103.75H422.5V113.75H432.5V103.75ZM432.5 10V0H422.5V10H432.5ZM498.125 10H508.125V0H498.125V10ZM498.125 28.75V38.75H508.125V28.75H498.125ZM460.625 28.75V18.75H450.625V28.75H460.625ZM460.625 47.5V57.5H498.125V47.5V37.5H460.625V47.5ZM498.125 47.5H488.125V66.25H498.125H508.125V47.5H498.125ZM498.125 66.25V56.25H460.625V66.25V76.25H498.125V66.25ZM460.625 66.25H450.625V85H460.625H470.625V66.25H460.625ZM460.625 85V95H498.125V85V75H460.625V85ZM498.125 85H488.125V103.75H498.125H508.125V85H498.125ZM498.125 103.75V93.75H432.5V103.75V113.75H498.125V103.75ZM432.5 103.75H442.5V10H432.5H422.5V103.75H432.5ZM432.5 10V20H498.125V10V0H432.5V10ZM498.125 10H488.125V28.75H498.125H508.125V10H498.125ZM498.125 28.75V18.75H460.625V28.75V38.75H498.125V28.75ZM460.625 28.75H450.625V47.5H460.625H470.625V28.75H460.625ZM591.875 66.25V56.25H581.875V66.25H591.875ZM591.875 103.75V113.75H601.875V103.75H591.875ZM563.75 103.75H553.75V113.75H563.75V103.75ZM563.75 85H573.75V75H563.75V85ZM545 85V75H535V85H545ZM545 103.75V113.75H555V103.75H545ZM516.875 103.75H506.875V113.75H516.875V103.75ZM516.875 66.25H526.875V56.25H516.875V66.25ZM507.5 66.25H497.5V76.25H507.5V66.25ZM507.5 10V0H497.5V10H507.5ZM535.625 10H545.625V0H535.625V10ZM535.625 66.25H525.625V76.25H535.625V66.25ZM545 66.25V76.25H555V66.25H545ZM545 28.75V18.75H535V28.75H545ZM563.75 28.75H573.75V18.75H563.75V28.75ZM563.75 66.25H553.75V76.25H563.75V66.25ZM573.125 66.25V76.25H583.125V66.25H573.125ZM573.125 10V0H563.125V10H573.125ZM601.25 10H611.25V0H601.25V10ZM601.25 66.25V76.25H611.25V66.25H601.25ZM591.875 66.25H581.875V103.75H591.875H601.875V66.25H591.875ZM591.875 103.75V93.75H563.75V103.75V113.75H591.875V103.75ZM563.75 103.75H573.75V85H563.75H553.75V103.75H563.75ZM563.75 85V75H545V85V95H563.75V85ZM545 85H535V103.75H545H555V85H545ZM545 103.75V93.75H516.875V103.75V113.75H545V103.75ZM516.875 103.75H526.875V66.25H516.875H506.875V103.75H516.875ZM516.875 66.25V56.25H507.5V66.25V76.25H516.875V66.25ZM507.5 66.25H517.5V10H507.5H497.5V66.25H507.5ZM507.5 10V20H535.625V10V0H507.5V10ZM535.625 10H525.625V66.25H535.625H545.625V10H535.625ZM535.625 66.25V76.25H545V66.25V56.25H535.625V66.25ZM545 66.25H555V28.75H545H535V66.25H545ZM545 28.75V38.75H563.75V28.75V18.75H545V28.75ZM563.75 28.75H553.75V66.25H563.75H573.75V28.75H563.75ZM563.75 66.25V76.25H573.125V66.25V56.25H563.75V66.25ZM573.125 66.25H583.125V10H573.125H563.125V66.25H573.125ZM573.125 10V20H601.25V10V0H573.125V10ZM601.25 10H591.25V66.25H601.25H611.25V10H601.25ZM601.25 66.25V56.25H591.875V66.25V76.25H601.25V66.25Z" fill="black" mask="url(#path-1-outside-1_2332_2)"/>
</g>
<defs>
<filter id="filter0_d_2332_2" x="0" y="0" width="621.25" height="133.75" filterUnits="userSpaceOnUse" color-interpolation-filters="sRGB">
<feFlood flood-opacity="0" result="BackgroundImageFix"/>
<feColorMatrix in="SourceAlpha" type="matrix" values="0 0 0 0 0 0 0 0 0 0 0 0 0 0 0 0 0 0 127 0" result="hardAlpha"/>
<feOffset dy="10"/>
<feGaussianBlur stdDeviation="5"/>
<feComposite in2="hardAlpha" operator="out"/>
<feColorMatrix type="matrix" values="0 0 0 0 0.333333 0 0 0 0 0.333333 0 0 0 0 0.333333 0 0 0 0.25 0"/>
<feBlend mode="normal" in2="BackgroundImageFix" result="effect1_dropShadow_2332_2"/>
<feBlend mode="normal" in="SourceGraphic" in2="effect1_dropShadow_2332_2" result="shape"/>
</filter>
</defs>
</svg>
