<svg width="256" height="153" viewBox="0 0 256 153" fill="none" xmlns="http://www.w3.org/2000/svg">
<g filter="url(#filter0_d_2333_10)">
<mask id="path-1-outside-1_2333_10" maskUnits="userSpaceOnUse" x="9.3125" y="-0.25" width="237" height="133" fill="black">
<rect fill="white" x="9.3125" y="-0.25" width="237" height="133"/>
<path d="M48.125 47.5H85.625V66.25H48.125V103.75H20V10H85.625V28.75H48.125V47.5ZM160.625 10V103.75H132.5V66.25H123.125V103.75H95V10H160.625ZM123.125 28.75V47.5H132.5V28.75H123.125ZM198.125 28.75V85H207.5V28.75H198.125ZM235.625 10V94.375H226.25V103.75H235.625V122.5H207.5V113.125H198.125V103.75H170V10H235.625Z"/>
</mask>
<path d="M48.125 47.5H85.625V66.25H48.125V103.75H20V10H85.625V28.75H48.125V47.5ZM160.625 10V103.75H132.5V66.25H123.125V103.75H95V10H160.625ZM123.125 28.75V47.5H132.5V28.75H123.125ZM198.125 28.75V85H207.5V28.75H198.125ZM235.625 10V94.375H226.25V103.75H235.625V122.5H207.5V113.125H198.125V103.75H170V10H235.625Z" fill="white"/>
<path d="M48.125 47.5H38.125V57.5H48.125V47.5ZM85.625 47.5H95.625V37.5H85.625V47.5ZM85.625 66.25V76.25H95.625V66.25H85.625ZM48.125 66.25V56.25H38.125V66.25H48.125ZM48.125 103.75V113.75H58.125V103.75H48.125ZM20 103.75H10V113.75H20V103.75ZM20 10V0H10V10H20ZM85.625 10H95.625V0H85.625V10ZM85.625 28.75V38.75H95.625V28.75H85.625ZM48.125 28.75V18.75H38.125V28.75H48.125ZM48.125 47.5V57.5H85.625V47.5V37.5H48.125V47.5ZM85.625 47.5H75.625V66.25H85.625H95.625V47.5H85.625ZM85.625 66.25V56.25H48.125V66.25V76.25H85.625V66.25ZM48.125 66.25H38.125V103.75H48.125H58.125V66.25H48.125ZM48.125 103.75V93.75H20V103.75V113.75H48.125V103.75ZM20 103.75H30V10H20H10V103.75H20ZM20 10V20H85.625V10V0H20V10ZM85.625 10H75.625V28.75H85.625H95.625V10H85.625ZM85.625 28.75V18.75H48.125V28.75V38.75H85.625V28.75ZM48.125 28.75H38.125V47.5H48.125H58.125V28.75H48.125ZM160.625 10H170.625V0H160.625V10ZM160.625 103.75V113.75H170.625V103.75H160.625ZM132.5 103.75H122.5V113.75H132.5V103.75ZM132.5 66.25H142.5V56.25H132.5V66.25ZM123.125 66.25V56.25H113.125V66.25H123.125ZM123.125 103.75V113.75H133.125V103.75H123.125ZM95 103.75H85V113.75H95V103.75ZM95 10V0H85V10H95ZM123.125 28.75V18.75H113.125V28.75H123.125ZM123.125 47.5H113.125V57.5H123.125V47.5ZM132.5 47.5V57.5H142.5V47.5H132.5ZM132.5 28.75H142.5V18.75H132.5V28.75ZM160.625 10H150.625V103.75H160.625H170.625V10H160.625ZM160.625 103.75V93.75H132.5V103.75V113.75H160.625V103.75ZM132.5 103.75H142.5V66.25H132.5H122.5V103.75H132.5ZM132.5 66.25V56.25H123.125V66.25V76.25H132.5V66.25ZM123.125 66.25H113.125V103.75H123.125H133.125V66.25H123.125ZM123.125 103.75V93.75H95V103.75V113.75H123.125V103.75ZM95 103.75H105V10H95H85V103.75H95ZM95 10V20H160.625V10V0H95V10ZM123.125 28.75H113.125V47.5H123.125H133.125V28.75H123.125ZM123.125 47.5V57.5H132.5V47.5V37.5H123.125V47.5ZM132.5 47.5H142.5V28.75H132.5H122.5V47.5H132.5ZM132.5 28.75V18.75H123.125V28.75V38.75H132.5V28.75ZM198.125 28.75V18.75H188.125V28.75H198.125ZM198.125 85H188.125V95H198.125V85ZM207.5 85V95H217.5V85H207.5ZM207.5 28.75H217.5V18.75H207.5V28.75ZM235.625 10H245.625V0H235.625V10ZM235.625 94.375V104.375H245.625V94.375H235.625ZM226.25 94.375V84.375H216.25V94.375H226.25ZM226.25 103.75H216.25V113.75H226.25V103.75ZM235.625 103.75H245.625V93.75H235.625V103.75ZM235.625 122.5V132.5H245.625V122.5H235.625ZM207.5 122.5H197.5V132.5H207.5V122.5ZM207.5 113.125H217.5V103.125H207.5V113.125ZM198.125 113.125H188.125V123.125H198.125V113.125ZM198.125 103.75H208.125V93.75H198.125V103.75ZM170 103.75H160V113.75H170V103.75ZM170 10V0H160V10H170ZM198.125 28.75H188.125V85H198.125H208.125V28.75H198.125ZM198.125 85V95H207.5V85V75H198.125V85ZM207.5 85H217.5V28.75H207.5H197.5V85H207.5ZM207.5 28.75V18.75H198.125V28.75V38.75H207.5V28.75ZM235.625 10H225.625V94.375H235.625H245.625V10H235.625ZM235.625 94.375V84.375H226.25V94.375V104.375H235.625V94.375ZM226.25 94.375H216.25V103.75H226.25H236.25V94.375H226.25ZM226.25 103.75V113.75H235.625V103.75V93.75H226.25V103.75ZM235.625 103.75H225.625V122.5H235.625H245.625V103.75H235.625ZM235.625 122.5V112.5H207.5V122.5V132.5H235.625V122.5ZM207.5 122.5H217.5V113.125H207.5H197.5V122.5H207.5ZM207.5 113.125V103.125H198.125V113.125V123.125H207.5V113.125ZM198.125 113.125H208.125V103.75H198.125H188.125V113.125H198.125ZM198.125 103.75V93.75H170V103.75V113.75H198.125V103.75ZM170 103.75H180V10H170H160V103.75H170ZM170 10V20H235.625V10V0H170V10Z" fill="black" mask="url(#path-1-outside-1_2333_10)"/>
</g>
<defs>
<filter id="filter0_d_2333_10" x="0" y="0" width="255.625" height="152.5" filterUnits="userSpaceOnUse" color-interpolation-filters="sRGB">
<feFlood flood-opacity="0" result="BackgroundImageFix"/>
<feColorMatrix in="SourceAlpha" type="matrix" values="0 0 0 0 0 0 0 0 0 0 0 0 0 0 0 0 0 0 127 0" result="hardAlpha"/>
<feOffset dy="10"/>
<feGaussianBlur stdDeviation="5"/>
<feComposite in2="hardAlpha" operator="out"/>
<feColorMatrix type="matrix" values="0 0 0 0 0.333333 0 0 0 0 0.333333 0 0 0 0 0.333333 0 0 0 0.25 0"/>
<feBlend mode="normal" in2="BackgroundImageFix" result="effect1_dropShadow_2333_10"/>
<feBlend mode="normal" in="SourceGraphic" in2="effect1_dropShadow_2333_10" result="shape"/>
</filter>
</defs>
</svg>
