<svg width="987" height="134" viewBox="0 0 987 134" fill="none" xmlns="http://www.w3.org/2000/svg">
<g filter="url(#filter0_d_2333_6)">
<mask id="path-1-outside-1_2333_6" maskUnits="userSpaceOnUse" x="9.3125" y="-0.25" width="968" height="114" fill="black">
<rect fill="white" x="9.3125" y="-0.25" width="968" height="114"/>
<path d="M48.125 10V47.5H57.5V10H85.625V103.75H57.5V66.25H48.125V103.75H20V10H48.125ZM123.125 28.75V85H132.5V28.75H123.125ZM160.625 10V103.75H95V10H160.625ZM254.375 66.25V103.75H226.25V85H207.5V103.75H179.375V66.25H170V10H198.125V66.25H207.5V28.75H226.25V66.25H235.625V10H263.75V66.25H254.375ZM376.25 10V28.75H357.5V103.75H329.375V28.75H310.625V10H376.25ZM413.75 28.75V85H423.125V28.75H413.75ZM451.25 10V103.75H385.625V10H451.25ZM526.25 10V103.75H498.125V10H526.25ZM563.75 10V28.75H573.125V47.5H582.5V10H610.625V103.75H582.5V75.625H573.125V56.875H563.75V103.75H535.625V10H563.75ZM620 103.75V85H657.5V66.25H620V10H685.625V28.75H648.125V47.5H685.625V103.75H620ZM760.625 10V28.75H741.875V103.75H713.75V28.75H695V10H760.625ZM835.625 10V103.75H807.5V66.25H798.125V103.75H770V10H835.625ZM798.125 28.75V47.5H807.5V28.75H798.125ZM873.125 10V85H901.25V103.75H845V10H873.125ZM938.75 10V85H966.875V103.75H910.625V10H938.75Z"/>
</mask>
<path d="M48.125 10V47.5H57.5V10H85.625V103.75H57.5V66.25H48.125V103.75H20V10H48.125ZM123.125 28.75V85H132.5V28.75H123.125ZM160.625 10V103.75H95V10H160.625ZM254.375 66.25V103.75H226.25V85H207.5V103.75H179.375V66.25H170V10H198.125V66.25H207.5V28.75H226.25V66.25H235.625V10H263.75V66.25H254.375ZM376.25 10V28.75H357.5V103.75H329.375V28.75H310.625V10H376.25ZM413.75 28.75V85H423.125V28.75H413.75ZM451.25 10V103.75H385.625V10H451.25ZM526.25 10V103.75H498.125V10H526.25ZM563.75 10V28.75H573.125V47.5H582.5V10H610.625V103.75H582.5V75.625H573.125V56.875H563.75V103.75H535.625V10H563.75ZM620 103.75V85H657.5V66.25H620V10H685.625V28.75H648.125V47.5H685.625V103.75H620ZM760.625 10V28.75H741.875V103.75H713.75V28.75H695V10H760.625ZM835.625 10V103.75H807.5V66.25H798.125V103.75H770V10H835.625ZM798.125 28.75V47.5H807.5V28.75H798.125ZM873.125 10V85H901.25V103.75H845V10H873.125ZM938.75 10V85H966.875V103.75H910.625V10H938.75Z" fill="white"/>
<path d="M48.125 10H58.125V0H48.125V10ZM48.125 47.5H38.125V57.5H48.125V47.5ZM57.5 47.5V57.5H67.5V47.5H57.5ZM57.5 10V0H47.5V10H57.5ZM85.625 10H95.625V0H85.625V10ZM85.625 103.75V113.75H95.625V103.75H85.625ZM57.5 103.75H47.5V113.75H57.5V103.75ZM57.5 66.25H67.5V56.25H57.5V66.25ZM48.125 66.25V56.25H38.125V66.25H48.125ZM48.125 103.75V113.75H58.125V103.75H48.125ZM20 103.75H10V113.75H20V103.75ZM20 10V0H10V10H20ZM48.125 10H38.125V47.5H48.125H58.125V10H48.125ZM48.125 47.5V57.5H57.5V47.5V37.5H48.125V47.5ZM57.5 47.5H67.5V10H57.5H47.5V47.5H57.5ZM57.5 10V20H85.625V10V0H57.5V10ZM85.625 10H75.625V103.75H85.625H95.625V10H85.625ZM85.625 103.75V93.75H57.5V103.75V113.75H85.625V103.75ZM57.5 103.75H67.5V66.25H57.5H47.5V103.75H57.5ZM57.5 66.25V56.25H48.125V66.25V76.25H57.5V66.25ZM48.125 66.25H38.125V103.75H48.125H58.125V66.25H48.125ZM48.125 103.75V93.75H20V103.75V113.75H48.125V103.75ZM20 103.75H30V10H20H10V103.75H20ZM20 10V20H48.125V10V0H20V10ZM123.125 28.75V18.75H113.125V28.75H123.125ZM123.125 85H113.125V95H123.125V85ZM132.5 85V95H142.5V85H132.5ZM132.5 28.75H142.5V18.75H132.5V28.75ZM160.625 10H170.625V0H160.625V10ZM160.625 103.75V113.75H170.625V103.75H160.625ZM95 103.75H85V113.75H95V103.75ZM95 10V0H85V10H95ZM123.125 28.75H113.125V85H123.125H133.125V28.75H123.125ZM123.125 85V95H132.5V85V75H123.125V85ZM132.5 85H142.5V28.75H132.5H122.5V85H132.5ZM132.5 28.75V18.75H123.125V28.75V38.75H132.5V28.75ZM160.625 10H150.625V103.75H160.625H170.625V10H160.625ZM160.625 103.75V93.75H95V103.75V113.75H160.625V103.75ZM95 103.75H105V10H95H85V103.75H95ZM95 10V20H160.625V10V0H95V10ZM254.375 66.25V56.25H244.375V66.25H254.375ZM254.375 103.75V113.75H264.375V103.75H254.375ZM226.25 103.75H216.25V113.75H226.25V103.75ZM226.25 85H236.25V75H226.25V85ZM207.5 85V75H197.5V85H207.5ZM207.5 103.75V113.75H217.5V103.75H207.5ZM179.375 103.75H169.375V113.75H179.375V103.75ZM179.375 66.25H189.375V56.25H179.375V66.25ZM170 66.25H160V76.25H170V66.25ZM170 10V0H160V10H170ZM198.125 10H208.125V0H198.125V10ZM198.125 66.25H188.125V76.25H198.125V66.25ZM207.5 66.25V76.25H217.5V66.25H207.5ZM207.5 28.75V18.75H197.5V28.75H207.5ZM226.25 28.75H236.25V18.75H226.25V28.75ZM226.25 66.25H216.25V76.25H226.25V66.25ZM235.625 66.25V76.25H245.625V66.25H235.625ZM235.625 10V0H225.625V10H235.625ZM263.75 10H273.75V0H263.75V10ZM263.75 66.25V76.25H273.75V66.25H263.75ZM254.375 66.25H244.375V103.75H254.375H264.375V66.25H254.375ZM254.375 103.75V93.75H226.25V103.75V113.75H254.375V103.75ZM226.25 103.75H236.25V85H226.25H216.25V103.75H226.25ZM226.25 85V75H207.5V85V95H226.25V85ZM207.5 85H197.5V103.75H207.5H217.5V85H207.5ZM207.5 103.75V93.75H179.375V103.75V113.75H207.5V103.75ZM179.375 103.75H189.375V66.25H179.375H169.375V103.75H179.375ZM179.375 66.25V56.25H170V66.25V76.25H179.375V66.25ZM170 66.25H180V10H170H160V66.25H170ZM170 10V20H198.125V10V0H170V10ZM198.125 10H188.125V66.25H198.125H208.125V10H198.125ZM198.125 66.25V76.25H207.5V66.25V56.25H198.125V66.25ZM207.5 66.25H217.5V28.75H207.5H197.5V66.25H207.5ZM207.5 28.75V38.75H226.25V28.75V18.75H207.5V28.75ZM226.25 28.75H216.25V66.25H226.25H236.25V28.75H226.25ZM226.25 66.25V76.25H235.625V66.25V56.25H226.25V66.25ZM235.625 66.25H245.625V10H235.625H225.625V66.25H235.625ZM235.625 10V20H263.75V10V0H235.625V10ZM263.75 10H253.75V66.25H263.75H273.75V10H263.75ZM263.75 66.25V56.25H254.375V66.25V76.25H263.75V66.25ZM376.25 10H386.25V0H376.25V10ZM376.25 28.75V38.75H386.25V28.75H376.25ZM357.5 28.75V18.75H347.5V28.75H357.5ZM357.5 103.75V113.75H367.5V103.75H357.5ZM329.375 103.75H319.375V113.75H329.375V103.75ZM329.375 28.75H339.375V18.75H329.375V28.75ZM310.625 28.75H300.625V38.75H310.625V28.75ZM310.625 10V0H300.625V10H310.625ZM376.25 10H366.25V28.75H376.25H386.25V10H376.25ZM376.25 28.75V18.75H357.5V28.75V38.75H376.25V28.75ZM357.5 28.75H347.5V103.75H357.5H367.5V28.75H357.5ZM357.5 103.75V93.75H329.375V103.75V113.75H357.5V103.75ZM329.375 103.75H339.375V28.75H329.375H319.375V103.75H329.375ZM329.375 28.75V18.75H310.625V28.75V38.75H329.375V28.75ZM310.625 28.75H320.625V10H310.625H300.625V28.75H310.625ZM310.625 10V20H376.25V10V0H310.625V10ZM413.75 28.75V18.75H403.75V28.75H413.75ZM413.75 85H403.75V95H413.75V85ZM423.125 85V95H433.125V85H423.125ZM423.125 28.75H433.125V18.75H423.125V28.75ZM451.25 10H461.25V0H451.25V10ZM451.25 103.75V113.75H461.25V103.75H451.25ZM385.625 103.75H375.625V113.75H385.625V103.75ZM385.625 10V0H375.625V10H385.625ZM413.75 28.75H403.75V85H413.75H423.75V28.75H413.75ZM413.75 85V95H423.125V85V75H413.75V85ZM423.125 85H433.125V28.75H423.125H413.125V85H423.125ZM423.125 28.75V18.75H413.75V28.75V38.75H423.125V28.75ZM451.25 10H441.25V103.75H451.25H461.25V10H451.25ZM451.25 103.75V93.75H385.625V103.75V113.75H451.25V103.75ZM385.625 103.75H395.625V10H385.625H375.625V103.75H385.625ZM385.625 10V20H451.25V10V0H385.625V10ZM526.25 10H536.25V0H526.25V10ZM526.25 103.75V113.75H536.25V103.75H526.25ZM498.125 103.75H488.125V113.75H498.125V103.75ZM498.125 10V0H488.125V10H498.125ZM526.25 10H516.25V103.75H526.25H536.25V10H526.25ZM526.25 103.75V93.75H498.125V103.75V113.75H526.25V103.75ZM498.125 103.75H508.125V10H498.125H488.125V103.75H498.125ZM498.125 10V20H526.25V10V0H498.125V10ZM563.75 10H573.75V0H563.75V10ZM563.75 28.75H553.75V38.75H563.75V28.75ZM573.125 28.75H583.125V18.75H573.125V28.75ZM573.125 47.5H563.125V57.5H573.125V47.5ZM582.5 47.5V57.5H592.5V47.5H582.5ZM582.5 10V0H572.5V10H582.5ZM610.625 10H620.625V0H610.625V10ZM610.625 103.75V113.75H620.625V103.75H610.625ZM582.5 103.75H572.5V113.75H582.5V103.75ZM582.5 75.625H592.5V65.625H582.5V75.625ZM573.125 75.625H563.125V85.625H573.125V75.625ZM573.125 56.875H583.125V46.875H573.125V56.875ZM563.75 56.875V46.875H553.75V56.875H563.75ZM563.75 103.75V113.75H573.75V103.75H563.75ZM535.625 103.75H525.625V113.75H535.625V103.75ZM535.625 10V0H525.625V10H535.625ZM563.75 10H553.75V28.75H563.75H573.75V10H563.75ZM563.75 28.75V38.75H573.125V28.75V18.75H563.75V28.75ZM573.125 28.75H563.125V47.5H573.125H583.125V28.75H573.125ZM573.125 47.5V57.5H582.5V47.5V37.5H573.125V47.5ZM582.5 47.5H592.5V10H582.5H572.5V47.5H582.5ZM582.5 10V20H610.625V10V0H582.5V10ZM610.625 10H600.625V103.75H610.625H620.625V10H610.625ZM610.625 103.75V93.75H582.5V103.75V113.75H610.625V103.75ZM582.5 103.75H592.5V75.625H582.5H572.5V103.75H582.5ZM582.5 75.625V65.625H573.125V75.625V85.625H582.5V75.625ZM573.125 75.625H583.125V56.875H573.125H563.125V75.625H573.125ZM573.125 56.875V46.875H563.75V56.875V66.875H573.125V56.875ZM563.75 56.875H553.75V103.75H563.75H573.75V56.875H563.75ZM563.75 103.75V93.75H535.625V103.75V113.75H563.75V103.75ZM535.625 103.75H545.625V10H535.625H525.625V103.75H535.625ZM535.625 10V20H563.75V10V0H535.625V10ZM620 103.75H610V113.75H620V103.75ZM620 85V75H610V85H620ZM657.5 85V95H667.5V85H657.5ZM657.5 66.25H667.5V56.25H657.5V66.25ZM620 66.25H610V76.25H620V66.25ZM620 10V0H610V10H620ZM685.625 10H695.625V0H685.625V10ZM685.625 28.75V38.75H695.625V28.75H685.625ZM648.125 28.75V18.75H638.125V28.75H648.125ZM648.125 47.5H638.125V57.5H648.125V47.5ZM685.625 47.5H695.625V37.5H685.625V47.5ZM685.625 103.75V113.75H695.625V103.75H685.625ZM620 103.75H630V85H620H610V103.75H620ZM620 85V95H657.5V85V75H620V85ZM657.5 85H667.5V66.25H657.5H647.5V85H657.5ZM657.5 66.25V56.25H620V66.25V76.25H657.5V66.25ZM620 66.25H630V10H620H610V66.25H620ZM620 10V20H685.625V10V0H620V10ZM685.625 10H675.625V28.75H685.625H695.625V10H685.625ZM685.625 28.75V18.75H648.125V28.75V38.75H685.625V28.75ZM648.125 28.75H638.125V47.5H648.125H658.125V28.75H648.125ZM648.125 47.5V57.5H685.625V47.5V37.5H648.125V47.5ZM685.625 47.5H675.625V103.75H685.625H695.625V47.5H685.625ZM685.625 103.75V93.75H620V103.75V113.75H685.625V103.75ZM760.625 10H770.625V0H760.625V10ZM760.625 28.75V38.75H770.625V28.75H760.625ZM741.875 28.75V18.75H731.875V28.75H741.875ZM741.875 103.75V113.75H751.875V103.75H741.875ZM713.75 103.75H703.75V113.75H713.75V103.75ZM713.75 28.75H723.75V18.75H713.75V28.75ZM695 28.75H685V38.75H695V28.75ZM695 10V0H685V10H695ZM760.625 10H750.625V28.75H760.625H770.625V10H760.625ZM760.625 28.75V18.75H741.875V28.75V38.75H760.625V28.75ZM741.875 28.75H731.875V103.75H741.875H751.875V28.75H741.875ZM741.875 103.75V93.75H713.75V103.75V113.75H741.875V103.75ZM713.75 103.75H723.75V28.75H713.75H703.75V103.75H713.75ZM713.75 28.75V18.75H695V28.75V38.75H713.75V28.75ZM695 28.75H705V10H695H685V28.75H695ZM695 10V20H760.625V10V0H695V10ZM835.625 10H845.625V0H835.625V10ZM835.625 103.75V113.75H845.625V103.75H835.625ZM807.5 103.75H797.5V113.75H807.5V103.75ZM807.5 66.25H817.5V56.25H807.5V66.25ZM798.125 66.25V56.25H788.125V66.25H798.125ZM798.125 103.75V113.75H808.125V103.75H798.125ZM770 103.75H760V113.75H770V103.75ZM770 10V0H760V10H770ZM798.125 28.75V18.75H788.125V28.75H798.125ZM798.125 47.5H788.125V57.5H798.125V47.5ZM807.5 47.5V57.5H817.5V47.5H807.5ZM807.5 28.75H817.5V18.75H807.5V28.75ZM835.625 10H825.625V103.75H835.625H845.625V10H835.625ZM835.625 103.75V93.75H807.5V103.75V113.75H835.625V103.75ZM807.5 103.75H817.5V66.25H807.5H797.5V103.75H807.5ZM807.5 66.25V56.25H798.125V66.25V76.25H807.5V66.25ZM798.125 66.25H788.125V103.75H798.125H808.125V66.25H798.125ZM798.125 103.75V93.75H770V103.75V113.75H798.125V103.75ZM770 103.75H780V10H770H760V103.75H770ZM770 10V20H835.625V10V0H770V10ZM798.125 28.75H788.125V47.5H798.125H808.125V28.75H798.125ZM798.125 47.5V57.5H807.5V47.5V37.5H798.125V47.5ZM807.5 47.5H817.5V28.75H807.5H797.5V47.5H807.5ZM807.5 28.75V18.75H798.125V28.75V38.75H807.5V28.75ZM873.125 10H883.125V0H873.125V10ZM873.125 85H863.125V95H873.125V85ZM901.25 85H911.25V75H901.25V85ZM901.25 103.75V113.75H911.25V103.75H901.25ZM845 103.75H835V113.75H845V103.75ZM845 10V0H835V10H845ZM873.125 10H863.125V85H873.125H883.125V10H873.125ZM873.125 85V95H901.25V85V75H873.125V85ZM901.25 85H891.25V103.75H901.25H911.25V85H901.25ZM901.25 103.75V93.75H845V103.75V113.75H901.25V103.75ZM845 103.75H855V10H845H835V103.75H845ZM845 10V20H873.125V10V0H845V10ZM938.75 10H948.75V0H938.75V10ZM938.75 85H928.75V95H938.75V85ZM966.875 85H976.875V75H966.875V85ZM966.875 103.75V113.75H976.875V103.75H966.875ZM910.625 103.75H900.625V113.75H910.625V103.75ZM910.625 10V0H900.625V10H910.625ZM938.75 10H928.75V85H938.75H948.75V10H938.75ZM938.75 85V95H966.875V85V75H938.75V85ZM966.875 85H956.875V103.75H966.875H976.875V85H966.875ZM966.875 103.75V93.75H910.625V103.75V113.75H966.875V103.75ZM910.625 103.75H920.625V10H910.625H900.625V103.75H910.625ZM910.625 10V20H938.75V10V0H910.625V10Z" fill="black" mask="url(#path-1-outside-1_2333_6)"/>
</g>
<defs>
<filter id="filter0_d_2333_6" x="0" y="0" width="986.875" height="133.75" filterUnits="userSpaceOnUse" color-interpolation-filters="sRGB">
<feFlood flood-opacity="0" result="BackgroundImageFix"/>
<feColorMatrix in="SourceAlpha" type="matrix" values="0 0 0 0 0 0 0 0 0 0 0 0 0 0 0 0 0 0 127 0" result="hardAlpha"/>
<feOffset dy="10"/>
<feGaussianBlur stdDeviation="5"/>
<feComposite in2="hardAlpha" operator="out"/>
<feColorMatrix type="matrix" values="0 0 0 0 0.333333 0 0 0 0 0.333333 0 0 0 0 0.333333 0 0 0 0.25 0"/>
<feBlend mode="normal" in2="BackgroundImageFix" result="effect1_dropShadow_2333_6"/>
<feBlend mode="normal" in="SourceGraphic" in2="effect1_dropShadow_2333_6" result="shape"/>
</filter>
</defs>
</svg>
