<svg width="1840" height="134" viewBox="0 0 1840 134" fill="none" xmlns="http://www.w3.org/2000/svg">
<g filter="url(#filter0_d_2333_8)">
<mask id="path-1-outside-1_2333_8" maskUnits="userSpaceOnUse" x="9.3125" y="-0.25" width="1821" height="114" fill="black">
<rect fill="white" x="9.3125" y="-0.25" width="1821" height="114"/>
<path d="M48.125 10V103.75H20V10H48.125ZM85.625 10V28.75H95V47.5H104.375V10H132.5V103.75H104.375V75.625H95V56.875H85.625V103.75H57.5V10H85.625ZM141.875 47.875H179.375V66.625H141.875V47.875ZM226.25 85V47.5H254.375V103.75H188.75V10H254.375V28.75H216.875V85H226.25ZM329.375 10V103.75H301.25V66.25H291.875V103.75H263.75V10H329.375ZM291.875 28.75V47.5H301.25V28.75H291.875ZM366.875 10V28.75H376.25V47.5H395V28.75H404.375V10H432.5V103.75H404.375V66.25H395V85H376.25V66.25H366.875V103.75H338.75V10H366.875ZM470 47.5H507.5V66.25H470V85H507.5V103.75H441.875V10H507.5V28.75H470V47.5ZM582.5 66.25V103.75H554.375V10H620V66.25H582.5ZM582.5 28.75V47.5H591.875V28.75H582.5ZM695 10V103.75H666.875V66.25H657.5V103.75H629.375V10H695ZM657.5 28.75V47.5H666.875V28.75H657.5ZM770 10V28.75H732.5V85H770V103.75H704.375V10H770ZM816.875 103.75V66.25H807.5V103.75H779.375V10H807.5V47.5H816.875V10H845V47.5H835.625V56.875H845V103.75H816.875ZM957.5 10V28.75H920V85H957.5V103.75H891.875V10H957.5ZM1032.5 10V103.75H966.875V10H995V85H1004.38V10H1032.5ZM1041.88 103.75V85H1079.38V66.25H1041.88V10H1107.5V28.75H1070V47.5H1107.5V103.75H1041.88ZM1182.5 10V28.75H1163.75V103.75H1135.62V28.75H1116.88V10H1182.5ZM1220 28.75V85H1229.38V28.75H1220ZM1257.5 10V103.75H1191.88V10H1257.5ZM1295 10V28.75H1304.38V47.5H1323.12V28.75H1332.5V10H1360.62V103.75H1332.5V66.25H1323.12V85H1304.38V66.25H1295V103.75H1266.88V10H1295ZM1398.12 10V103.75H1370V10H1398.12ZM1407.5 103.75V66.25H1416.88V56.875H1426.25V47.5H1435.62V38.125H1445V28.75H1407.5V10H1473.12V47.5H1463.75V56.875H1454.38V66.25H1445V75.625H1435.62V85H1473.12V103.75H1407.5ZM1548.12 10V103.75H1520V66.25H1510.62V103.75H1482.5V10H1548.12ZM1510.62 28.75V47.5H1520V28.75H1510.62ZM1623.12 10V28.75H1604.38V103.75H1576.25V28.75H1557.5V10H1623.12ZM1660.62 10V103.75H1632.5V10H1660.62ZM1698.12 28.75V85H1707.5V28.75H1698.12ZM1735.62 10V103.75H1670V10H1735.62ZM1773.12 10V28.75H1782.5V47.5H1791.88V10H1820V103.75H1791.88V75.625H1782.5V56.875H1773.12V103.75H1745V10H1773.12Z"/>
</mask>
<path d="M48.125 10V103.75H20V10H48.125ZM85.625 10V28.75H95V47.5H104.375V10H132.5V103.75H104.375V75.625H95V56.875H85.625V103.75H57.5V10H85.625ZM141.875 47.875H179.375V66.625H141.875V47.875ZM226.25 85V47.5H254.375V103.75H188.75V10H254.375V28.75H216.875V85H226.25ZM329.375 10V103.75H301.25V66.25H291.875V103.75H263.75V10H329.375ZM291.875 28.75V47.5H301.25V28.75H291.875ZM366.875 10V28.75H376.25V47.5H395V28.75H404.375V10H432.5V103.75H404.375V66.25H395V85H376.25V66.25H366.875V103.75H338.75V10H366.875ZM470 47.5H507.5V66.25H470V85H507.5V103.75H441.875V10H507.5V28.75H470V47.5ZM582.5 66.25V103.75H554.375V10H620V66.25H582.5ZM582.5 28.75V47.5H591.875V28.75H582.5ZM695 10V103.75H666.875V66.25H657.5V103.75H629.375V10H695ZM657.5 28.75V47.5H666.875V28.75H657.5ZM770 10V28.75H732.5V85H770V103.75H704.375V10H770ZM816.875 103.75V66.25H807.5V103.75H779.375V10H807.5V47.5H816.875V10H845V47.5H835.625V56.875H845V103.75H816.875ZM957.5 10V28.75H920V85H957.5V103.75H891.875V10H957.5ZM1032.5 10V103.75H966.875V10H995V85H1004.38V10H1032.5ZM1041.88 103.75V85H1079.38V66.25H1041.88V10H1107.5V28.75H1070V47.5H1107.5V103.75H1041.88ZM1182.5 10V28.75H1163.75V103.75H1135.62V28.75H1116.88V10H1182.5ZM1220 28.75V85H1229.38V28.75H1220ZM1257.5 10V103.75H1191.88V10H1257.5ZM1295 10V28.75H1304.38V47.5H1323.12V28.75H1332.5V10H1360.62V103.75H1332.5V66.25H1323.12V85H1304.38V66.25H1295V103.75H1266.88V10H1295ZM1398.12 10V103.75H1370V10H1398.12ZM1407.5 103.75V66.25H1416.88V56.875H1426.25V47.5H1435.62V38.125H1445V28.75H1407.5V10H1473.12V47.5H1463.75V56.875H1454.38V66.25H1445V75.625H1435.62V85H1473.12V103.75H1407.5ZM1548.12 10V103.75H1520V66.25H1510.62V103.75H1482.5V10H1548.12ZM1510.62 28.75V47.5H1520V28.75H1510.62ZM1623.12 10V28.75H1604.38V103.75H1576.25V28.75H1557.5V10H1623.12ZM1660.62 10V103.75H1632.5V10H1660.62ZM1698.12 28.75V85H1707.5V28.75H1698.12ZM1735.62 10V103.75H1670V10H1735.62ZM1773.12 10V28.75H1782.5V47.5H1791.88V10H1820V103.75H1791.88V75.625H1782.5V56.875H1773.12V103.75H1745V10H1773.12Z" fill="white"/>
<path d="M48.125 10H58.125V0H48.125V10ZM48.125 103.75V113.75H58.125V103.75H48.125ZM20 103.75H10V113.75H20V103.75ZM20 10V0H10V10H20ZM48.125 10H38.125V103.75H48.125H58.125V10H48.125ZM48.125 103.75V93.75H20V103.75V113.75H48.125V103.75ZM20 103.75H30V10H20H10V103.75H20ZM20 10V20H48.125V10V0H20V10ZM85.625 10H95.625V0H85.625V10ZM85.625 28.75H75.625V38.75H85.625V28.75ZM95 28.75H105V18.75H95V28.75ZM95 47.5H85V57.5H95V47.5ZM104.375 47.5V57.5H114.375V47.5H104.375ZM104.375 10V0H94.375V10H104.375ZM132.5 10H142.5V0H132.5V10ZM132.5 103.75V113.75H142.5V103.75H132.5ZM104.375 103.75H94.375V113.75H104.375V103.75ZM104.375 75.625H114.375V65.625H104.375V75.625ZM95 75.625H85V85.625H95V75.625ZM95 56.875H105V46.875H95V56.875ZM85.625 56.875V46.875H75.625V56.875H85.625ZM85.625 103.75V113.75H95.625V103.75H85.625ZM57.5 103.75H47.5V113.75H57.5V103.75ZM57.5 10V0H47.5V10H57.5ZM85.625 10H75.625V28.75H85.625H95.625V10H85.625ZM85.625 28.75V38.75H95V28.75V18.75H85.625V28.75ZM95 28.75H85V47.5H95H105V28.75H95ZM95 47.5V57.5H104.375V47.5V37.5H95V47.5ZM104.375 47.5H114.375V10H104.375H94.375V47.5H104.375ZM104.375 10V20H132.5V10V0H104.375V10ZM132.5 10H122.5V103.75H132.5H142.5V10H132.5ZM132.5 103.75V93.75H104.375V103.75V113.75H132.5V103.75ZM104.375 103.75H114.375V75.625H104.375H94.375V103.75H104.375ZM104.375 75.625V65.625H95V75.625V85.625H104.375V75.625ZM95 75.625H105V56.875H95H85V75.625H95ZM95 56.875V46.875H85.625V56.875V66.875H95V56.875ZM85.625 56.875H75.625V103.75H85.625H95.625V56.875H85.625ZM85.625 103.75V93.75H57.5V103.75V113.75H85.625V103.75ZM57.5 103.75H67.5V10H57.5H47.5V103.75H57.5ZM57.5 10V20H85.625V10V0H57.5V10ZM141.875 47.875V37.875H131.875V47.875H141.875ZM179.375 47.875H189.375V37.875H179.375V47.875ZM179.375 66.625V76.625H189.375V66.625H179.375ZM141.875 66.625H131.875V76.625H141.875V66.625ZM141.875 47.875V57.875H179.375V47.875V37.875H141.875V47.875ZM179.375 47.875H169.375V66.625H179.375H189.375V47.875H179.375ZM179.375 66.625V56.625H141.875V66.625V76.625H179.375V66.625ZM141.875 66.625H151.875V47.875H141.875H131.875V66.625H141.875ZM226.25 85V95H236.25V85H226.25ZM226.25 47.5V37.5H216.25V47.5H226.25ZM254.375 47.5H264.375V37.5H254.375V47.5ZM254.375 103.75V113.75H264.375V103.75H254.375ZM188.75 103.75H178.75V113.75H188.75V103.75ZM188.75 10V0H178.75V10H188.75ZM254.375 10H264.375V0H254.375V10ZM254.375 28.75V38.75H264.375V28.75H254.375ZM216.875 28.75V18.75H206.875V28.75H216.875ZM216.875 85H206.875V95H216.875V85ZM226.25 85H236.25V47.5H226.25H216.25V85H226.25ZM226.25 47.5V57.5H254.375V47.5V37.5H226.25V47.5ZM254.375 47.5H244.375V103.75H254.375H264.375V47.5H254.375ZM254.375 103.75V93.75H188.75V103.75V113.75H254.375V103.75ZM188.75 103.75H198.75V10H188.75H178.75V103.75H188.75ZM188.75 10V20H254.375V10V0H188.75V10ZM254.375 10H244.375V28.75H254.375H264.375V10H254.375ZM254.375 28.75V18.75H216.875V28.75V38.75H254.375V28.75ZM216.875 28.75H206.875V85H216.875H226.875V28.75H216.875ZM216.875 85V95H226.25V85V75H216.875V85ZM329.375 10H339.375V0H329.375V10ZM329.375 103.75V113.75H339.375V103.75H329.375ZM301.25 103.75H291.25V113.75H301.25V103.75ZM301.25 66.25H311.25V56.25H301.25V66.25ZM291.875 66.25V56.25H281.875V66.25H291.875ZM291.875 103.75V113.75H301.875V103.75H291.875ZM263.75 103.75H253.75V113.75H263.75V103.75ZM263.75 10V0H253.75V10H263.75ZM291.875 28.75V18.75H281.875V28.75H291.875ZM291.875 47.5H281.875V57.5H291.875V47.5ZM301.25 47.5V57.5H311.25V47.5H301.25ZM301.25 28.75H311.25V18.75H301.25V28.75ZM329.375 10H319.375V103.75H329.375H339.375V10H329.375ZM329.375 103.75V93.75H301.25V103.75V113.75H329.375V103.75ZM301.25 103.75H311.25V66.25H301.25H291.25V103.75H301.25ZM301.25 66.25V56.25H291.875V66.25V76.25H301.25V66.25ZM291.875 66.25H281.875V103.75H291.875H301.875V66.25H291.875ZM291.875 103.75V93.75H263.75V103.75V113.75H291.875V103.75ZM263.75 103.75H273.75V10H263.75H253.75V103.75H263.75ZM263.75 10V20H329.375V10V0H263.75V10ZM291.875 28.75H281.875V47.5H291.875H301.875V28.75H291.875ZM291.875 47.5V57.5H301.25V47.5V37.5H291.875V47.5ZM301.25 47.5H311.25V28.75H301.25H291.25V47.5H301.25ZM301.25 28.75V18.75H291.875V28.75V38.75H301.25V28.75ZM366.875 10H376.875V0H366.875V10ZM366.875 28.75H356.875V38.75H366.875V28.75ZM376.25 28.75H386.25V18.75H376.25V28.75ZM376.25 47.5H366.25V57.5H376.25V47.5ZM395 47.5V57.5H405V47.5H395ZM395 28.75V18.75H385V28.75H395ZM404.375 28.75V38.75H414.375V28.75H404.375ZM404.375 10V0H394.375V10H404.375ZM432.5 10H442.5V0H432.5V10ZM432.5 103.75V113.75H442.5V103.75H432.5ZM404.375 103.75H394.375V113.75H404.375V103.75ZM404.375 66.25H414.375V56.25H404.375V66.25ZM395 66.25V56.25H385V66.25H395ZM395 85V95H405V85H395ZM376.25 85H366.25V95H376.25V85ZM376.25 66.25H386.25V56.25H376.25V66.25ZM366.875 66.25V56.25H356.875V66.25H366.875ZM366.875 103.75V113.75H376.875V103.75H366.875ZM338.75 103.75H328.75V113.75H338.75V103.75ZM338.75 10V0H328.75V10H338.75ZM366.875 10H356.875V28.75H366.875H376.875V10H366.875ZM366.875 28.75V38.75H376.25V28.75V18.75H366.875V28.75ZM376.25 28.75H366.25V47.5H376.25H386.25V28.75H376.25ZM376.25 47.5V57.5H395V47.5V37.5H376.25V47.5ZM395 47.5H405V28.75H395H385V47.5H395ZM395 28.75V38.75H404.375V28.75V18.75H395V28.75ZM404.375 28.75H414.375V10H404.375H394.375V28.75H404.375ZM404.375 10V20H432.5V10V0H404.375V10ZM432.5 10H422.5V103.75H432.5H442.5V10H432.5ZM432.5 103.75V93.75H404.375V103.75V113.75H432.5V103.75ZM404.375 103.75H414.375V66.25H404.375H394.375V103.75H404.375ZM404.375 66.25V56.25H395V66.25V76.25H404.375V66.25ZM395 66.25H385V85H395H405V66.25H395ZM395 85V75H376.25V85V95H395V85ZM376.25 85H386.25V66.25H376.25H366.25V85H376.25ZM376.25 66.25V56.25H366.875V66.25V76.25H376.25V66.25ZM366.875 66.25H356.875V103.75H366.875H376.875V66.25H366.875ZM366.875 103.75V93.75H338.75V103.75V113.75H366.875V103.75ZM338.75 103.75H348.75V10H338.75H328.75V103.75H338.75ZM338.75 10V20H366.875V10V0H338.75V10ZM470 47.5H460V57.5H470V47.5ZM507.5 47.5H517.5V37.5H507.5V47.5ZM507.5 66.25V76.25H517.5V66.25H507.5ZM470 66.25V56.25H460V66.25H470ZM470 85H460V95H470V85ZM507.5 85H517.5V75H507.5V85ZM507.5 103.75V113.75H517.5V103.75H507.5ZM441.875 103.75H431.875V113.75H441.875V103.75ZM441.875 10V0H431.875V10H441.875ZM507.5 10H517.5V0H507.5V10ZM507.5 28.75V38.75H517.5V28.75H507.5ZM470 28.75V18.75H460V28.75H470ZM470 47.5V57.5H507.5V47.5V37.5H470V47.5ZM507.5 47.5H497.5V66.25H507.5H517.5V47.5H507.5ZM507.5 66.25V56.25H470V66.25V76.25H507.5V66.25ZM470 66.25H460V85H470H480V66.25H470ZM470 85V95H507.5V85V75H470V85ZM507.5 85H497.5V103.75H507.5H517.5V85H507.5ZM507.5 103.75V93.75H441.875V103.75V113.75H507.5V103.75ZM441.875 103.75H451.875V10H441.875H431.875V103.75H441.875ZM441.875 10V20H507.5V10V0H441.875V10ZM507.5 10H497.5V28.75H507.5H517.5V10H507.5ZM507.5 28.75V18.75H470V28.75V38.75H507.5V28.75ZM470 28.75H460V47.5H470H480V28.75H470ZM582.5 66.25V56.25H572.5V66.25H582.5ZM582.5 103.75V113.75H592.5V103.75H582.5ZM554.375 103.75H544.375V113.75H554.375V103.75ZM554.375 10V0H544.375V10H554.375ZM620 10H630V0H620V10ZM620 66.25V76.25H630V66.25H620ZM582.5 28.75V18.75H572.5V28.75H582.5ZM582.5 47.5H572.5V57.5H582.5V47.5ZM591.875 47.5V57.5H601.875V47.5H591.875ZM591.875 28.75H601.875V18.75H591.875V28.75ZM582.5 66.25H572.5V103.75H582.5H592.5V66.25H582.5ZM582.5 103.75V93.75H554.375V103.75V113.75H582.5V103.75ZM554.375 103.75H564.375V10H554.375H544.375V103.75H554.375ZM554.375 10V20H620V10V0H554.375V10ZM620 10H610V66.25H620H630V10H620ZM620 66.25V56.25H582.5V66.25V76.25H620V66.25ZM582.5 28.75H572.5V47.5H582.5H592.5V28.75H582.5ZM582.5 47.5V57.5H591.875V47.5V37.5H582.5V47.5ZM591.875 47.5H601.875V28.75H591.875H581.875V47.5H591.875ZM591.875 28.75V18.75H582.5V28.75V38.75H591.875V28.75ZM695 10H705V0H695V10ZM695 103.75V113.75H705V103.75H695ZM666.875 103.75H656.875V113.75H666.875V103.75ZM666.875 66.25H676.875V56.25H666.875V66.25ZM657.5 66.25V56.25H647.5V66.25H657.5ZM657.5 103.75V113.75H667.5V103.75H657.5ZM629.375 103.75H619.375V113.75H629.375V103.75ZM629.375 10V0H619.375V10H629.375ZM657.5 28.75V18.75H647.5V28.75H657.5ZM657.5 47.5H647.5V57.5H657.5V47.5ZM666.875 47.5V57.5H676.875V47.5H666.875ZM666.875 28.75H676.875V18.75H666.875V28.75ZM695 10H685V103.75H695H705V10H695ZM695 103.75V93.75H666.875V103.75V113.75H695V103.75ZM666.875 103.75H676.875V66.25H666.875H656.875V103.75H666.875ZM666.875 66.25V56.25H657.5V66.25V76.25H666.875V66.25ZM657.5 66.25H647.5V103.75H657.5H667.5V66.25H657.5ZM657.5 103.75V93.75H629.375V103.75V113.75H657.5V103.75ZM629.375 103.75H639.375V10H629.375H619.375V103.75H629.375ZM629.375 10V20H695V10V0H629.375V10ZM657.5 28.75H647.5V47.5H657.5H667.5V28.75H657.5ZM657.5 47.5V57.5H666.875V47.5V37.5H657.5V47.5ZM666.875 47.5H676.875V28.75H666.875H656.875V47.5H666.875ZM666.875 28.75V18.75H657.5V28.75V38.75H666.875V28.75ZM770 10H780V0H770V10ZM770 28.75V38.75H780V28.75H770ZM732.5 28.75V18.75H722.5V28.75H732.5ZM732.5 85H722.5V95H732.5V85ZM770 85H780V75H770V85ZM770 103.75V113.75H780V103.75H770ZM704.375 103.75H694.375V113.75H704.375V103.75ZM704.375 10V0H694.375V10H704.375ZM770 10H760V28.75H770H780V10H770ZM770 28.75V18.75H732.5V28.75V38.75H770V28.75ZM732.5 28.75H722.5V85H732.5H742.5V28.75H732.5ZM732.5 85V95H770V85V75H732.5V85ZM770 85H760V103.75H770H780V85H770ZM770 103.75V93.75H704.375V103.75V113.75H770V103.75ZM704.375 103.75H714.375V10H704.375H694.375V103.75H704.375ZM704.375 10V20H770V10V0H704.375V10ZM816.875 103.75H806.875V113.75H816.875V103.75ZM816.875 66.25H826.875V56.25H816.875V66.25ZM807.5 66.25V56.25H797.5V66.25H807.5ZM807.5 103.75V113.75H817.5V103.75H807.5ZM779.375 103.75H769.375V113.75H779.375V103.75ZM779.375 10V0H769.375V10H779.375ZM807.5 10H817.5V0H807.5V10ZM807.5 47.5H797.5V57.5H807.5V47.5ZM816.875 47.5V57.5H826.875V47.5H816.875ZM816.875 10V0H806.875V10H816.875ZM845 10H855V0H845V10ZM845 47.5V57.5H855V47.5H845ZM835.625 47.5V37.5H825.625V47.5H835.625ZM835.625 56.875H825.625V66.875H835.625V56.875ZM845 56.875H855V46.875H845V56.875ZM845 103.75V113.75H855V103.75H845ZM816.875 103.75H826.875V66.25H816.875H806.875V103.75H816.875ZM816.875 66.25V56.25H807.5V66.25V76.25H816.875V66.25ZM807.5 66.25H797.5V103.75H807.5H817.5V66.25H807.5ZM807.5 103.75V93.75H779.375V103.75V113.75H807.5V103.75ZM779.375 103.75H789.375V10H779.375H769.375V103.75H779.375ZM779.375 10V20H807.5V10V0H779.375V10ZM807.5 10H797.5V47.5H807.5H817.5V10H807.5ZM807.5 47.5V57.5H816.875V47.5V37.5H807.5V47.5ZM816.875 47.5H826.875V10H816.875H806.875V47.5H816.875ZM816.875 10V20H845V10V0H816.875V10ZM845 10H835V47.5H845H855V10H845ZM845 47.5V37.5H835.625V47.5V57.5H845V47.5ZM835.625 47.5H825.625V56.875H835.625H845.625V47.5H835.625ZM835.625 56.875V66.875H845V56.875V46.875H835.625V56.875ZM845 56.875H835V103.75H845H855V56.875H845ZM845 103.75V93.75H816.875V103.75V113.75H845V103.75ZM957.5 10H967.5V0H957.5V10ZM957.5 28.75V38.75H967.5V28.75H957.5ZM920 28.75V18.75H910V28.75H920ZM920 85H910V95H920V85ZM957.5 85H967.5V75H957.5V85ZM957.5 103.75V113.75H967.5V103.75H957.5ZM891.875 103.75H881.875V113.75H891.875V103.75ZM891.875 10V0H881.875V10H891.875ZM957.5 10H947.5V28.75H957.5H967.5V10H957.5ZM957.5 28.75V18.75H920V28.75V38.75H957.5V28.75ZM920 28.75H910V85H920H930V28.75H920ZM920 85V95H957.5V85V75H920V85ZM957.5 85H947.5V103.75H957.5H967.5V85H957.5ZM957.5 103.75V93.75H891.875V103.75V113.75H957.5V103.75ZM891.875 103.75H901.875V10H891.875H881.875V103.75H891.875ZM891.875 10V20H957.5V10V0H891.875V10ZM1032.5 10H1042.5V0H1032.5V10ZM1032.5 103.75V113.75H1042.5V103.75H1032.5ZM966.875 103.75H956.875V113.75H966.875V103.75ZM966.875 10V0H956.875V10H966.875ZM995 10H1005V0H995V10ZM995 85H985V95H995V85ZM1004.38 85V95H1014.38V85H1004.38ZM1004.38 10V0H994.375V10H1004.38ZM1032.5 10H1022.5V103.75H1032.5H1042.5V10H1032.5ZM1032.5 103.75V93.75H966.875V103.75V113.75H1032.5V103.75ZM966.875 103.75H976.875V10H966.875H956.875V103.75H966.875ZM966.875 10V20H995V10V0H966.875V10ZM995 10H985V85H995H1005V10H995ZM995 85V95H1004.38V85V75H995V85ZM1004.38 85H1014.38V10H1004.38H994.375V85H1004.38ZM1004.38 10V20H1032.5V10V0H1004.38V10ZM1041.88 103.75H1031.88V113.75H1041.88V103.75ZM1041.88 85V75H1031.88V85H1041.88ZM1079.38 85V95H1089.38V85H1079.38ZM1079.38 66.25H1089.38V56.25H1079.38V66.25ZM1041.88 66.25H1031.88V76.25H1041.88V66.25ZM1041.88 10V0H1031.88V10H1041.88ZM1107.5 10H1117.5V0H1107.5V10ZM1107.5 28.75V38.75H1117.5V28.75H1107.5ZM1070 28.75V18.75H1060V28.75H1070ZM1070 47.5H1060V57.5H1070V47.5ZM1107.5 47.5H1117.5V37.5H1107.5V47.5ZM1107.5 103.75V113.75H1117.5V103.75H1107.5ZM1041.88 103.75H1051.88V85H1041.88H1031.88V103.75H1041.88ZM1041.88 85V95H1079.38V85V75H1041.88V85ZM1079.38 85H1089.38V66.25H1079.38H1069.38V85H1079.38ZM1079.38 66.25V56.25H1041.88V66.25V76.25H1079.38V66.25ZM1041.88 66.25H1051.88V10H1041.88H1031.88V66.25H1041.88ZM1041.88 10V20H1107.5V10V0H1041.88V10ZM1107.5 10H1097.5V28.75H1107.5H1117.5V10H1107.5ZM1107.5 28.75V18.75H1070V28.75V38.75H1107.5V28.75ZM1070 28.75H1060V47.5H1070H1080V28.75H1070ZM1070 47.5V57.5H1107.5V47.5V37.5H1070V47.5ZM1107.5 47.5H1097.5V103.75H1107.5H1117.5V47.5H1107.5ZM1107.5 103.75V93.75H1041.88V103.75V113.75H1107.5V103.75ZM1182.5 10H1192.5V0H1182.5V10ZM1182.5 28.75V38.75H1192.5V28.75H1182.5ZM1163.75 28.75V18.75H1153.75V28.75H1163.75ZM1163.75 103.75V113.75H1173.75V103.75H1163.75ZM1135.62 103.75H1125.62V113.75H1135.62V103.75ZM1135.62 28.75H1145.62V18.75H1135.62V28.75ZM1116.88 28.75H1106.88V38.75H1116.88V28.75ZM1116.88 10V0H1106.88V10H1116.88ZM1182.5 10H1172.5V28.75H1182.5H1192.5V10H1182.5ZM1182.5 28.75V18.75H1163.75V28.75V38.75H1182.5V28.75ZM1163.75 28.75H1153.75V103.75H1163.75H1173.75V28.75H1163.75ZM1163.75 103.75V93.75H1135.62V103.75V113.75H1163.75V103.75ZM1135.62 103.75H1145.62V28.75H1135.62H1125.62V103.75H1135.62ZM1135.62 28.75V18.75H1116.88V28.75V38.75H1135.62V28.75ZM1116.88 28.75H1126.88V10H1116.88H1106.88V28.75H1116.88ZM1116.88 10V20H1182.5V10V0H1116.88V10ZM1220 28.75V18.75H1210V28.75H1220ZM1220 85H1210V95H1220V85ZM1229.38 85V95H1239.38V85H1229.38ZM1229.38 28.75H1239.38V18.75H1229.38V28.75ZM1257.5 10H1267.5V0H1257.5V10ZM1257.5 103.75V113.75H1267.5V103.75H1257.5ZM1191.88 103.75H1181.88V113.75H1191.88V103.75ZM1191.88 10V0H1181.88V10H1191.88ZM1220 28.75H1210V85H1220H1230V28.75H1220ZM1220 85V95H1229.38V85V75H1220V85ZM1229.38 85H1239.38V28.75H1229.38H1219.38V85H1229.38ZM1229.38 28.75V18.75H1220V28.75V38.75H1229.38V28.75ZM1257.5 10H1247.5V103.75H1257.5H1267.5V10H1257.5ZM1257.5 103.75V93.75H1191.88V103.75V113.75H1257.5V103.75ZM1191.88 103.75H1201.88V10H1191.88H1181.88V103.75H1191.88ZM1191.88 10V20H1257.5V10V0H1191.88V10ZM1295 10H1305V0H1295V10ZM1295 28.75H1285V38.75H1295V28.75ZM1304.38 28.75H1314.38V18.75H1304.38V28.75ZM1304.38 47.5H1294.38V57.5H1304.38V47.5ZM1323.12 47.5V57.5H1333.12V47.5H1323.12ZM1323.12 28.75V18.75H1313.12V28.75H1323.12ZM1332.5 28.75V38.75H1342.5V28.75H1332.5ZM1332.5 10V0H1322.5V10H1332.5ZM1360.62 10H1370.62V0H1360.62V10ZM1360.62 103.75V113.75H1370.62V103.75H1360.62ZM1332.5 103.75H1322.5V113.75H1332.5V103.75ZM1332.5 66.25H1342.5V56.25H1332.5V66.25ZM1323.12 66.25V56.25H1313.12V66.25H1323.12ZM1323.12 85V95H1333.12V85H1323.12ZM1304.38 85H1294.38V95H1304.38V85ZM1304.38 66.25H1314.38V56.25H1304.38V66.25ZM1295 66.25V56.25H1285V66.25H1295ZM1295 103.75V113.75H1305V103.75H1295ZM1266.88 103.75H1256.88V113.75H1266.88V103.75ZM1266.88 10V0H1256.88V10H1266.88ZM1295 10H1285V28.75H1295H1305V10H1295ZM1295 28.75V38.75H1304.38V28.75V18.75H1295V28.75ZM1304.38 28.75H1294.38V47.5H1304.38H1314.38V28.75H1304.38ZM1304.38 47.5V57.5H1323.12V47.5V37.5H1304.38V47.5ZM1323.12 47.5H1333.12V28.75H1323.12H1313.12V47.5H1323.12ZM1323.12 28.75V38.75H1332.5V28.75V18.75H1323.12V28.75ZM1332.5 28.75H1342.5V10H1332.5H1322.5V28.75H1332.5ZM1332.5 10V20H1360.62V10V0H1332.5V10ZM1360.62 10H1350.62V103.75H1360.62H1370.62V10H1360.62ZM1360.62 103.75V93.75H1332.5V103.75V113.75H1360.62V103.75ZM1332.5 103.75H1342.5V66.25H1332.5H1322.5V103.75H1332.5ZM1332.5 66.25V56.25H1323.12V66.25V76.25H1332.5V66.25ZM1323.12 66.25H1313.12V85H1323.12H1333.12V66.25H1323.12ZM1323.12 85V75H1304.38V85V95H1323.12V85ZM1304.38 85H1314.38V66.25H1304.38H1294.38V85H1304.38ZM1304.38 66.25V56.25H1295V66.25V76.25H1304.38V66.25ZM1295 66.25H1285V103.75H1295H1305V66.25H1295ZM1295 103.75V93.75H1266.88V103.75V113.75H1295V103.75ZM1266.88 103.75H1276.88V10H1266.88H1256.88V103.75H1266.88ZM1266.88 10V20H1295V10V0H1266.88V10ZM1398.12 10H1408.12V0H1398.12V10ZM1398.12 103.75V113.75H1408.12V103.75H1398.12ZM1370 103.75H1360V113.75H1370V103.75ZM1370 10V0H1360V10H1370ZM1398.12 10H1388.12V103.75H1398.12H1408.12V10H1398.12ZM1398.12 103.75V93.75H1370V103.75V113.75H1398.12V103.75ZM1370 103.75H1380V10H1370H1360V103.75H1370ZM1370 10V20H1398.12V10V0H1370V10ZM1407.5 103.75H1397.5V113.75H1407.5V103.75ZM1407.5 66.25V56.25H1397.5V66.25H1407.5ZM1416.88 66.25V76.25H1426.88V66.25H1416.88ZM1416.88 56.875V46.875H1406.88V56.875H1416.88ZM1426.25 56.875V66.875H1436.25V56.875H1426.25ZM1426.25 47.5V37.5H1416.25V47.5H1426.25ZM1435.62 47.5V57.5H1445.62V47.5H1435.62ZM1435.62 38.125V28.125H1425.62V38.125H1435.62ZM1445 38.125V48.125H1455V38.125H1445ZM1445 28.75H1455V18.75H1445V28.75ZM1407.5 28.75H1397.5V38.75H1407.5V28.75ZM1407.5 10V0H1397.5V10H1407.5ZM1473.12 10H1483.12V0H1473.12V10ZM1473.12 47.5V57.5H1483.12V47.5H1473.12ZM1463.75 47.5V37.5H1453.75V47.5H1463.75ZM1463.75 56.875V66.875H1473.75V56.875H1463.75ZM1454.38 56.875V46.875H1444.38V56.875H1454.38ZM1454.38 66.25V76.25H1464.38V66.25H1454.38ZM1445 66.25V56.25H1435V66.25H1445ZM1445 75.625V85.625H1455V75.625H1445ZM1435.62 75.625V65.625H1425.62V75.625H1435.62ZM1435.62 85H1425.62V95H1435.62V85ZM1473.12 85H1483.12V75H1473.12V85ZM1473.12 103.75V113.75H1483.12V103.75H1473.12ZM1407.5 103.75H1417.5V66.25H1407.5H1397.5V103.75H1407.5ZM1407.5 66.25V76.25H1416.88V66.25V56.25H1407.5V66.25ZM1416.88 66.25H1426.88V56.875H1416.88H1406.88V66.25H1416.88ZM1416.88 56.875V66.875H1426.25V56.875V46.875H1416.88V56.875ZM1426.25 56.875H1436.25V47.5H1426.25H1416.25V56.875H1426.25ZM1426.25 47.5V57.5H1435.62V47.5V37.5H1426.25V47.5ZM1435.62 47.5H1445.62V38.125H1435.62H1425.62V47.5H1435.62ZM1435.62 38.125V48.125H1445V38.125V28.125H1435.62V38.125ZM1445 38.125H1455V28.75H1445H1435V38.125H1445ZM1445 28.75V18.75H1407.5V28.75V38.75H1445V28.75ZM1407.5 28.75H1417.5V10H1407.5H1397.5V28.75H1407.5ZM1407.5 10V20H1473.12V10V0H1407.5V10ZM1473.12 10H1463.12V47.5H1473.12H1483.12V10H1473.12ZM1473.12 47.5V37.5H1463.75V47.5V57.5H1473.12V47.5ZM1463.75 47.5H1453.75V56.875H1463.75H1473.75V47.5H1463.75ZM1463.75 56.875V46.875H1454.38V56.875V66.875H1463.75V56.875ZM1454.38 56.875H1444.38V66.25H1454.38H1464.38V56.875H1454.38ZM1454.38 66.25V56.25H1445V66.25V76.25H1454.38V66.25ZM1445 66.25H1435V75.625H1445H1455V66.25H1445ZM1445 75.625V65.625H1435.62V75.625V85.625H1445V75.625ZM1435.62 75.625H1425.62V85H1435.62H1445.62V75.625H1435.62ZM1435.62 85V95H1473.12V85V75H1435.62V85ZM1473.12 85H1463.12V103.75H1473.12H1483.12V85H1473.12ZM1473.12 103.75V93.75H1407.5V103.75V113.75H1473.12V103.75ZM1548.12 10H1558.12V0H1548.12V10ZM1548.12 103.75V113.75H1558.12V103.75H1548.12ZM1520 103.75H1510V113.75H1520V103.75ZM1520 66.25H1530V56.25H1520V66.25ZM1510.62 66.25V56.25H1500.62V66.25H1510.62ZM1510.62 103.75V113.75H1520.62V103.75H1510.62ZM1482.5 103.75H1472.5V113.75H1482.5V103.75ZM1482.5 10V0H1472.5V10H1482.5ZM1510.62 28.75V18.75H1500.62V28.75H1510.62ZM1510.62 47.5H1500.62V57.5H1510.62V47.5ZM1520 47.5V57.5H1530V47.5H1520ZM1520 28.75H1530V18.75H1520V28.75ZM1548.12 10H1538.12V103.75H1548.12H1558.12V10H1548.12ZM1548.12 103.75V93.75H1520V103.75V113.75H1548.12V103.75ZM1520 103.75H1530V66.25H1520H1510V103.75H1520ZM1520 66.25V56.25H1510.62V66.25V76.25H1520V66.25ZM1510.62 66.25H1500.62V103.75H1510.62H1520.62V66.25H1510.62ZM1510.62 103.75V93.75H1482.5V103.75V113.75H1510.62V103.75ZM1482.5 103.75H1492.5V10H1482.5H1472.5V103.75H1482.5ZM1482.5 10V20H1548.12V10V0H1482.5V10ZM1510.62 28.75H1500.62V47.5H1510.62H1520.62V28.75H1510.62ZM1510.62 47.5V57.5H1520V47.5V37.5H1510.62V47.5ZM1520 47.5H1530V28.75H1520H1510V47.5H1520ZM1520 28.75V18.75H1510.62V28.75V38.75H1520V28.75ZM1623.12 10H1633.12V0H1623.12V10ZM1623.12 28.75V38.75H1633.12V28.75H1623.12ZM1604.38 28.75V18.75H1594.38V28.75H1604.38ZM1604.38 103.75V113.75H1614.38V103.75H1604.38ZM1576.25 103.75H1566.25V113.75H1576.25V103.75ZM1576.25 28.75H1586.25V18.75H1576.25V28.75ZM1557.5 28.75H1547.5V38.75H1557.5V28.75ZM1557.5 10V0H1547.5V10H1557.5ZM1623.12 10H1613.12V28.75H1623.12H1633.12V10H1623.12ZM1623.12 28.75V18.75H1604.38V28.75V38.75H1623.12V28.75ZM1604.38 28.75H1594.38V103.75H1604.38H1614.38V28.75H1604.38ZM1604.38 103.75V93.75H1576.25V103.75V113.75H1604.38V103.75ZM1576.25 103.75H1586.25V28.75H1576.25H1566.25V103.75H1576.25ZM1576.25 28.75V18.75H1557.5V28.75V38.75H1576.25V28.75ZM1557.5 28.75H1567.5V10H1557.5H1547.5V28.75H1557.5ZM1557.5 10V20H1623.12V10V0H1557.5V10ZM1660.62 10H1670.62V0H1660.62V10ZM1660.62 103.75V113.75H1670.62V103.75H1660.62ZM1632.5 103.75H1622.5V113.75H1632.5V103.75ZM1632.5 10V0H1622.5V10H1632.5ZM1660.62 10H1650.62V103.75H1660.62H1670.62V10H1660.62ZM1660.62 103.75V93.75H1632.5V103.75V113.75H1660.62V103.75ZM1632.5 103.75H1642.5V10H1632.5H1622.5V103.75H1632.5ZM1632.5 10V20H1660.62V10V0H1632.5V10ZM1698.12 28.75V18.75H1688.12V28.75H1698.12ZM1698.12 85H1688.12V95H1698.12V85ZM1707.5 85V95H1717.5V85H1707.5ZM1707.5 28.75H1717.5V18.75H1707.5V28.75ZM1735.62 10H1745.62V0H1735.62V10ZM1735.62 103.75V113.75H1745.62V103.75H1735.62ZM1670 103.75H1660V113.75H1670V103.75ZM1670 10V0H1660V10H1670ZM1698.12 28.75H1688.12V85H1698.12H1708.12V28.75H1698.12ZM1698.12 85V95H1707.5V85V75H1698.12V85ZM1707.5 85H1717.5V28.75H1707.5H1697.5V85H1707.5ZM1707.5 28.75V18.75H1698.12V28.75V38.75H1707.5V28.75ZM1735.62 10H1725.62V103.75H1735.62H1745.62V10H1735.62ZM1735.62 103.75V93.75H1670V103.75V113.75H1735.62V103.75ZM1670 103.75H1680V10H1670H1660V103.75H1670ZM1670 10V20H1735.62V10V0H1670V10ZM1773.12 10H1783.12V0H1773.12V10ZM1773.12 28.75H1763.12V38.75H1773.12V28.75ZM1782.5 28.75H1792.5V18.75H1782.5V28.75ZM1782.5 47.5H1772.5V57.5H1782.5V47.5ZM1791.88 47.5V57.5H1801.88V47.5H1791.88ZM1791.88 10V0H1781.88V10H1791.88ZM1820 10H1830V0H1820V10ZM1820 103.75V113.75H1830V103.75H1820ZM1791.88 103.75H1781.88V113.75H1791.88V103.75ZM1791.88 75.625H1801.88V65.625H1791.88V75.625ZM1782.5 75.625H1772.5V85.625H1782.5V75.625ZM1782.5 56.875H1792.5V46.875H1782.5V56.875ZM1773.12 56.875V46.875H1763.12V56.875H1773.12ZM1773.12 103.75V113.75H1783.12V103.75H1773.12ZM1745 103.75H1735V113.75H1745V103.75ZM1745 10V0H1735V10H1745ZM1773.12 10H1763.12V28.75H1773.12H1783.12V10H1773.12ZM1773.12 28.75V38.75H1782.5V28.75V18.75H1773.12V28.75ZM1782.5 28.75H1772.5V47.5H1782.5H1792.5V28.75H1782.5ZM1782.5 47.5V57.5H1791.88V47.5V37.5H1782.5V47.5ZM1791.88 47.5H1801.88V10H1791.88H1781.88V47.5H1791.88ZM1791.88 10V20H1820V10V0H1791.88V10ZM1820 10H1810V103.75H1820H1830V10H1820ZM1820 103.75V93.75H1791.88V103.75V113.75H1820V103.75ZM1791.88 103.75H1801.88V75.625H1791.88H1781.88V103.75H1791.88ZM1791.88 75.625V65.625H1782.5V75.625V85.625H1791.88V75.625ZM1782.5 75.625H1792.5V56.875H1782.5H1772.5V75.625H1782.5ZM1782.5 56.875V46.875H1773.12V56.875V66.875H1782.5V56.875ZM1773.12 56.875H1763.12V103.75H1773.12H1783.12V56.875H1773.12ZM1773.12 103.75V93.75H1745V103.75V113.75H1773.12V103.75ZM1745 103.75H1755V10H1745H1735V103.75H1745ZM1745 10V20H1773.12V10V0H1745V10Z" fill="black" mask="url(#path-1-outside-1_2333_8)"/>
</g>
<defs>
<filter id="filter0_d_2333_8" x="0" y="0" width="1840" height="133.75" filterUnits="userSpaceOnUse" color-interpolation-filters="sRGB">
<feFlood flood-opacity="0" result="BackgroundImageFix"/>
<feColorMatrix in="SourceAlpha" type="matrix" values="0 0 0 0 0 0 0 0 0 0 0 0 0 0 0 0 0 0 127 0" result="hardAlpha"/>
<feOffset dy="10"/>
<feGaussianBlur stdDeviation="5"/>
<feComposite in2="hardAlpha" operator="out"/>
<feColorMatrix type="matrix" values="0 0 0 0 0.333333 0 0 0 0 0.333333 0 0 0 0 0.333333 0 0 0 0.25 0"/>
<feBlend mode="normal" in2="BackgroundImageFix" result="effect1_dropShadow_2333_8"/>
<feBlend mode="normal" in="SourceGraphic" in2="effect1_dropShadow_2333_8" result="shape"/>
</filter>
</defs>
</svg>
