<svg width="1344" height="134" viewBox="0 0 1344 134" fill="none" xmlns="http://www.w3.org/2000/svg">
<g filter="url(#filter0_d_2333_4)">
<mask id="path-1-outside-1_2333_4" maskUnits="userSpaceOnUse" x="9.3125" y="-0.25" width="1324" height="114" fill="black">
<rect fill="white" x="9.3125" y="-0.25" width="1324" height="114"/>
<path d="M20 103.75V85H57.5V66.25H20V10H85.625V28.75H48.125V47.5H85.625V103.75H20ZM160.625 10V103.75H95V10H123.125V85H132.5V10H160.625ZM198.125 66.25V103.75H170V10H235.625V66.25H198.125ZM198.125 28.75V47.5H207.5V28.75H198.125ZM273.125 66.25V103.75H245V10H310.625V66.25H273.125ZM273.125 28.75V47.5H282.5V28.75H273.125ZM348.125 28.75V85H357.5V28.75H348.125ZM385.625 10V103.75H320V10H385.625ZM432.5 103.75V66.25H423.125V103.75H395V10H460.625V47.5H451.25V56.875H460.625V103.75H432.5ZM423.125 28.75V47.5H432.5V28.75H423.125ZM535.625 10V28.75H516.875V103.75H488.75V28.75H470V10H535.625ZM573.125 47.5H610.625V66.25H573.125V85H610.625V103.75H545V10H610.625V28.75H573.125V47.5ZM648.125 28.75V85H657.5V28.75H648.125ZM676.25 10V19.375H685.625V94.375H676.25V103.75H620V10H676.25ZM760.625 47.5H798.125V66.25H760.625V103.75H732.5V10H798.125V28.75H760.625V47.5ZM835.625 47.5H873.125V66.25H835.625V85H873.125V103.75H807.5V10H873.125V28.75H835.625V47.5ZM948.125 10V103.75H920V66.25H910.625V103.75H882.5V10H948.125ZM910.625 28.75V47.5H920V28.75H910.625ZM1023.12 10V28.75H1004.38V103.75H976.25V28.75H957.5V10H1023.12ZM1098.12 10V103.75H1032.5V10H1060.62V85H1070V10H1098.12ZM1145 103.75V66.25H1135.62V103.75H1107.5V10H1173.12V47.5H1163.75V56.875H1173.12V103.75H1145ZM1135.62 28.75V47.5H1145V28.75H1135.62ZM1210.62 47.5H1248.12V66.25H1210.62V85H1248.12V103.75H1182.5V10H1248.12V28.75H1210.62V47.5ZM1257.5 103.75V85H1295V66.25H1257.5V10H1323.12V28.75H1285.62V47.5H1323.12V103.75H1257.5Z"/>
</mask>
<path d="M20 103.75V85H57.5V66.25H20V10H85.625V28.75H48.125V47.5H85.625V103.75H20ZM160.625 10V103.75H95V10H123.125V85H132.5V10H160.625ZM198.125 66.25V103.75H170V10H235.625V66.25H198.125ZM198.125 28.75V47.5H207.5V28.75H198.125ZM273.125 66.25V103.75H245V10H310.625V66.25H273.125ZM273.125 28.75V47.5H282.5V28.75H273.125ZM348.125 28.75V85H357.5V28.75H348.125ZM385.625 10V103.75H320V10H385.625ZM432.5 103.75V66.25H423.125V103.75H395V10H460.625V47.5H451.25V56.875H460.625V103.75H432.5ZM423.125 28.75V47.5H432.5V28.75H423.125ZM535.625 10V28.75H516.875V103.75H488.75V28.75H470V10H535.625ZM573.125 47.5H610.625V66.25H573.125V85H610.625V103.75H545V10H610.625V28.75H573.125V47.5ZM648.125 28.75V85H657.5V28.75H648.125ZM676.25 10V19.375H685.625V94.375H676.25V103.75H620V10H676.25ZM760.625 47.5H798.125V66.25H760.625V103.75H732.5V10H798.125V28.75H760.625V47.5ZM835.625 47.5H873.125V66.25H835.625V85H873.125V103.75H807.5V10H873.125V28.75H835.625V47.5ZM948.125 10V103.75H920V66.25H910.625V103.75H882.5V10H948.125ZM910.625 28.75V47.5H920V28.75H910.625ZM1023.12 10V28.75H1004.38V103.75H976.25V28.75H957.5V10H1023.12ZM1098.12 10V103.75H1032.5V10H1060.62V85H1070V10H1098.12ZM1145 103.75V66.25H1135.62V103.75H1107.5V10H1173.12V47.5H1163.75V56.875H1173.12V103.75H1145ZM1135.62 28.75V47.5H1145V28.75H1135.62ZM1210.62 47.5H1248.12V66.25H1210.62V85H1248.12V103.75H1182.5V10H1248.12V28.75H1210.62V47.5ZM1257.5 103.75V85H1295V66.25H1257.5V10H1323.12V28.75H1285.62V47.5H1323.12V103.75H1257.5Z" fill="white"/>
<path d="M20 103.75H10V113.75H20V103.75ZM20 85V75H10V85H20ZM57.5 85V95H67.5V85H57.5ZM57.5 66.25H67.5V56.25H57.5V66.25ZM20 66.25H10V76.25H20V66.25ZM20 10V0H10V10H20ZM85.625 10H95.625V0H85.625V10ZM85.625 28.75V38.75H95.625V28.75H85.625ZM48.125 28.75V18.75H38.125V28.75H48.125ZM48.125 47.5H38.125V57.5H48.125V47.5ZM85.625 47.5H95.625V37.5H85.625V47.5ZM85.625 103.75V113.75H95.625V103.75H85.625ZM20 103.75H30V85H20H10V103.75H20ZM20 85V95H57.5V85V75H20V85ZM57.5 85H67.5V66.25H57.5H47.5V85H57.5ZM57.5 66.25V56.25H20V66.25V76.25H57.5V66.25ZM20 66.25H30V10H20H10V66.25H20ZM20 10V20H85.625V10V0H20V10ZM85.625 10H75.625V28.75H85.625H95.625V10H85.625ZM85.625 28.75V18.75H48.125V28.75V38.75H85.625V28.75ZM48.125 28.75H38.125V47.5H48.125H58.125V28.75H48.125ZM48.125 47.5V57.5H85.625V47.5V37.5H48.125V47.5ZM85.625 47.5H75.625V103.75H85.625H95.625V47.5H85.625ZM85.625 103.75V93.75H20V103.75V113.75H85.625V103.75ZM160.625 10H170.625V0H160.625V10ZM160.625 103.75V113.75H170.625V103.75H160.625ZM95 103.75H85V113.75H95V103.75ZM95 10V0H85V10H95ZM123.125 10H133.125V0H123.125V10ZM123.125 85H113.125V95H123.125V85ZM132.5 85V95H142.5V85H132.5ZM132.5 10V0H122.5V10H132.5ZM160.625 10H150.625V103.75H160.625H170.625V10H160.625ZM160.625 103.75V93.75H95V103.75V113.75H160.625V103.75ZM95 103.75H105V10H95H85V103.75H95ZM95 10V20H123.125V10V0H95V10ZM123.125 10H113.125V85H123.125H133.125V10H123.125ZM123.125 85V95H132.5V85V75H123.125V85ZM132.5 85H142.5V10H132.5H122.5V85H132.5ZM132.5 10V20H160.625V10V0H132.5V10ZM198.125 66.25V56.25H188.125V66.25H198.125ZM198.125 103.75V113.75H208.125V103.75H198.125ZM170 103.75H160V113.75H170V103.75ZM170 10V0H160V10H170ZM235.625 10H245.625V0H235.625V10ZM235.625 66.25V76.25H245.625V66.25H235.625ZM198.125 28.75V18.75H188.125V28.75H198.125ZM198.125 47.5H188.125V57.5H198.125V47.5ZM207.5 47.5V57.5H217.5V47.5H207.5ZM207.5 28.75H217.5V18.75H207.5V28.75ZM198.125 66.25H188.125V103.75H198.125H208.125V66.25H198.125ZM198.125 103.75V93.75H170V103.75V113.75H198.125V103.75ZM170 103.75H180V10H170H160V103.75H170ZM170 10V20H235.625V10V0H170V10ZM235.625 10H225.625V66.25H235.625H245.625V10H235.625ZM235.625 66.25V56.25H198.125V66.25V76.25H235.625V66.25ZM198.125 28.75H188.125V47.5H198.125H208.125V28.75H198.125ZM198.125 47.5V57.5H207.5V47.5V37.5H198.125V47.5ZM207.5 47.5H217.5V28.75H207.5H197.5V47.5H207.5ZM207.5 28.75V18.75H198.125V28.75V38.75H207.5V28.75ZM273.125 66.25V56.25H263.125V66.25H273.125ZM273.125 103.75V113.75H283.125V103.75H273.125ZM245 103.75H235V113.75H245V103.75ZM245 10V0H235V10H245ZM310.625 10H320.625V0H310.625V10ZM310.625 66.25V76.25H320.625V66.25H310.625ZM273.125 28.75V18.75H263.125V28.75H273.125ZM273.125 47.5H263.125V57.5H273.125V47.5ZM282.5 47.5V57.5H292.5V47.5H282.5ZM282.5 28.75H292.5V18.75H282.5V28.75ZM273.125 66.25H263.125V103.75H273.125H283.125V66.25H273.125ZM273.125 103.75V93.75H245V103.75V113.75H273.125V103.75ZM245 103.75H255V10H245H235V103.75H245ZM245 10V20H310.625V10V0H245V10ZM310.625 10H300.625V66.25H310.625H320.625V10H310.625ZM310.625 66.25V56.25H273.125V66.25V76.25H310.625V66.25ZM273.125 28.75H263.125V47.5H273.125H283.125V28.75H273.125ZM273.125 47.5V57.5H282.5V47.5V37.5H273.125V47.5ZM282.5 47.5H292.5V28.75H282.5H272.5V47.5H282.5ZM282.5 28.75V18.75H273.125V28.75V38.75H282.5V28.75ZM348.125 28.75V18.75H338.125V28.75H348.125ZM348.125 85H338.125V95H348.125V85ZM357.5 85V95H367.5V85H357.5ZM357.5 28.75H367.5V18.75H357.5V28.75ZM385.625 10H395.625V0H385.625V10ZM385.625 103.75V113.75H395.625V103.75H385.625ZM320 103.75H310V113.75H320V103.75ZM320 10V0H310V10H320ZM348.125 28.75H338.125V85H348.125H358.125V28.75H348.125ZM348.125 85V95H357.5V85V75H348.125V85ZM357.5 85H367.5V28.75H357.5H347.5V85H357.5ZM357.5 28.75V18.75H348.125V28.75V38.75H357.5V28.75ZM385.625 10H375.625V103.75H385.625H395.625V10H385.625ZM385.625 103.75V93.75H320V103.75V113.75H385.625V103.75ZM320 103.75H330V10H320H310V103.75H320ZM320 10V20H385.625V10V0H320V10ZM432.5 103.75H422.5V113.75H432.5V103.75ZM432.5 66.25H442.5V56.25H432.5V66.25ZM423.125 66.25V56.25H413.125V66.25H423.125ZM423.125 103.75V113.75H433.125V103.75H423.125ZM395 103.75H385V113.75H395V103.75ZM395 10V0H385V10H395ZM460.625 10H470.625V0H460.625V10ZM460.625 47.5V57.5H470.625V47.5H460.625ZM451.25 47.5V37.5H441.25V47.5H451.25ZM451.25 56.875H441.25V66.875H451.25V56.875ZM460.625 56.875H470.625V46.875H460.625V56.875ZM460.625 103.75V113.75H470.625V103.75H460.625ZM423.125 28.75V18.75H413.125V28.75H423.125ZM423.125 47.5H413.125V57.5H423.125V47.5ZM432.5 47.5V57.5H442.5V47.5H432.5ZM432.5 28.75H442.5V18.75H432.5V28.75ZM432.5 103.75H442.5V66.25H432.5H422.5V103.75H432.5ZM432.5 66.25V56.25H423.125V66.25V76.25H432.5V66.25ZM423.125 66.25H413.125V103.75H423.125H433.125V66.25H423.125ZM423.125 103.75V93.75H395V103.75V113.75H423.125V103.75ZM395 103.75H405V10H395H385V103.75H395ZM395 10V20H460.625V10V0H395V10ZM460.625 10H450.625V47.5H460.625H470.625V10H460.625ZM460.625 47.5V37.5H451.25V47.5V57.5H460.625V47.5ZM451.25 47.5H441.25V56.875H451.25H461.25V47.5H451.25ZM451.25 56.875V66.875H460.625V56.875V46.875H451.25V56.875ZM460.625 56.875H450.625V103.75H460.625H470.625V56.875H460.625ZM460.625 103.75V93.75H432.5V103.75V113.75H460.625V103.75ZM423.125 28.75H413.125V47.5H423.125H433.125V28.75H423.125ZM423.125 47.5V57.5H432.5V47.5V37.5H423.125V47.5ZM432.5 47.5H442.5V28.75H432.5H422.5V47.5H432.5ZM432.5 28.75V18.75H423.125V28.75V38.75H432.5V28.75ZM535.625 10H545.625V0H535.625V10ZM535.625 28.75V38.75H545.625V28.75H535.625ZM516.875 28.75V18.75H506.875V28.75H516.875ZM516.875 103.75V113.75H526.875V103.75H516.875ZM488.75 103.75H478.75V113.75H488.75V103.75ZM488.75 28.75H498.75V18.75H488.75V28.75ZM470 28.75H460V38.75H470V28.75ZM470 10V0H460V10H470ZM535.625 10H525.625V28.75H535.625H545.625V10H535.625ZM535.625 28.75V18.75H516.875V28.75V38.75H535.625V28.75ZM516.875 28.75H506.875V103.75H516.875H526.875V28.75H516.875ZM516.875 103.75V93.75H488.75V103.75V113.75H516.875V103.75ZM488.75 103.75H498.75V28.75H488.75H478.75V103.75H488.75ZM488.75 28.75V18.75H470V28.75V38.75H488.75V28.75ZM470 28.75H480V10H470H460V28.75H470ZM470 10V20H535.625V10V0H470V10ZM573.125 47.5H563.125V57.5H573.125V47.5ZM610.625 47.5H620.625V37.5H610.625V47.5ZM610.625 66.25V76.25H620.625V66.25H610.625ZM573.125 66.25V56.25H563.125V66.25H573.125ZM573.125 85H563.125V95H573.125V85ZM610.625 85H620.625V75H610.625V85ZM610.625 103.75V113.75H620.625V103.75H610.625ZM545 103.75H535V113.75H545V103.75ZM545 10V0H535V10H545ZM610.625 10H620.625V0H610.625V10ZM610.625 28.75V38.75H620.625V28.75H610.625ZM573.125 28.75V18.75H563.125V28.75H573.125ZM573.125 47.5V57.5H610.625V47.5V37.5H573.125V47.5ZM610.625 47.5H600.625V66.25H610.625H620.625V47.5H610.625ZM610.625 66.25V56.25H573.125V66.25V76.25H610.625V66.25ZM573.125 66.25H563.125V85H573.125H583.125V66.25H573.125ZM573.125 85V95H610.625V85V75H573.125V85ZM610.625 85H600.625V103.75H610.625H620.625V85H610.625ZM610.625 103.75V93.75H545V103.75V113.75H610.625V103.75ZM545 103.75H555V10H545H535V103.75H545ZM545 10V20H610.625V10V0H545V10ZM610.625 10H600.625V28.75H610.625H620.625V10H610.625ZM610.625 28.75V18.75H573.125V28.75V38.75H610.625V28.75ZM573.125 28.75H563.125V47.5H573.125H583.125V28.75H573.125ZM648.125 28.75V18.75H638.125V28.75H648.125ZM648.125 85H638.125V95H648.125V85ZM657.5 85V95H667.5V85H657.5ZM657.5 28.75H667.5V18.75H657.5V28.75ZM676.25 10H686.25V0H676.25V10ZM676.25 19.375H666.25V29.375H676.25V19.375ZM685.625 19.375H695.625V9.375H685.625V19.375ZM685.625 94.375V104.375H695.625V94.375H685.625ZM676.25 94.375V84.375H666.25V94.375H676.25ZM676.25 103.75V113.75H686.25V103.75H676.25ZM620 103.75H610V113.75H620V103.75ZM620 10V0H610V10H620ZM648.125 28.75H638.125V85H648.125H658.125V28.75H648.125ZM648.125 85V95H657.5V85V75H648.125V85ZM657.5 85H667.5V28.75H657.5H647.5V85H657.5ZM657.5 28.75V18.75H648.125V28.75V38.75H657.5V28.75ZM676.25 10H666.25V19.375H676.25H686.25V10H676.25ZM676.25 19.375V29.375H685.625V19.375V9.375H676.25V19.375ZM685.625 19.375H675.625V94.375H685.625H695.625V19.375H685.625ZM685.625 94.375V84.375H676.25V94.375V104.375H685.625V94.375ZM676.25 94.375H666.25V103.75H676.25H686.25V94.375H676.25ZM676.25 103.75V93.75H620V103.75V113.75H676.25V103.75ZM620 103.75H630V10H620H610V103.75H620ZM620 10V20H676.25V10V0H620V10ZM760.625 47.5H750.625V57.5H760.625V47.5ZM798.125 47.5H808.125V37.5H798.125V47.5ZM798.125 66.25V76.25H808.125V66.25H798.125ZM760.625 66.25V56.25H750.625V66.25H760.625ZM760.625 103.75V113.75H770.625V103.75H760.625ZM732.5 103.75H722.5V113.75H732.5V103.75ZM732.5 10V0H722.5V10H732.5ZM798.125 10H808.125V0H798.125V10ZM798.125 28.75V38.75H808.125V28.75H798.125ZM760.625 28.75V18.75H750.625V28.75H760.625ZM760.625 47.5V57.5H798.125V47.5V37.5H760.625V47.5ZM798.125 47.5H788.125V66.25H798.125H808.125V47.5H798.125ZM798.125 66.25V56.25H760.625V66.25V76.25H798.125V66.25ZM760.625 66.25H750.625V103.75H760.625H770.625V66.25H760.625ZM760.625 103.75V93.75H732.5V103.75V113.75H760.625V103.75ZM732.5 103.75H742.5V10H732.5H722.5V103.75H732.5ZM732.5 10V20H798.125V10V0H732.5V10ZM798.125 10H788.125V28.75H798.125H808.125V10H798.125ZM798.125 28.75V18.75H760.625V28.75V38.75H798.125V28.75ZM760.625 28.75H750.625V47.5H760.625H770.625V28.75H760.625ZM835.625 47.5H825.625V57.5H835.625V47.5ZM873.125 47.5H883.125V37.5H873.125V47.5ZM873.125 66.25V76.25H883.125V66.25H873.125ZM835.625 66.25V56.25H825.625V66.25H835.625ZM835.625 85H825.625V95H835.625V85ZM873.125 85H883.125V75H873.125V85ZM873.125 103.75V113.75H883.125V103.75H873.125ZM807.5 103.75H797.5V113.75H807.5V103.75ZM807.5 10V0H797.5V10H807.5ZM873.125 10H883.125V0H873.125V10ZM873.125 28.75V38.75H883.125V28.75H873.125ZM835.625 28.75V18.75H825.625V28.75H835.625ZM835.625 47.5V57.5H873.125V47.5V37.5H835.625V47.5ZM873.125 47.5H863.125V66.25H873.125H883.125V47.5H873.125ZM873.125 66.25V56.25H835.625V66.25V76.25H873.125V66.25ZM835.625 66.25H825.625V85H835.625H845.625V66.25H835.625ZM835.625 85V95H873.125V85V75H835.625V85ZM873.125 85H863.125V103.75H873.125H883.125V85H873.125ZM873.125 103.75V93.75H807.5V103.75V113.75H873.125V103.75ZM807.5 103.75H817.5V10H807.5H797.5V103.75H807.5ZM807.5 10V20H873.125V10V0H807.5V10ZM873.125 10H863.125V28.75H873.125H883.125V10H873.125ZM873.125 28.75V18.75H835.625V28.75V38.75H873.125V28.75ZM835.625 28.75H825.625V47.5H835.625H845.625V28.75H835.625ZM948.125 10H958.125V0H948.125V10ZM948.125 103.75V113.75H958.125V103.75H948.125ZM920 103.75H910V113.75H920V103.75ZM920 66.25H930V56.25H920V66.25ZM910.625 66.25V56.25H900.625V66.25H910.625ZM910.625 103.75V113.75H920.625V103.75H910.625ZM882.5 103.75H872.5V113.75H882.5V103.75ZM882.5 10V0H872.5V10H882.5ZM910.625 28.75V18.75H900.625V28.75H910.625ZM910.625 47.5H900.625V57.5H910.625V47.5ZM920 47.5V57.5H930V47.5H920ZM920 28.75H930V18.75H920V28.75ZM948.125 10H938.125V103.75H948.125H958.125V10H948.125ZM948.125 103.75V93.75H920V103.75V113.75H948.125V103.75ZM920 103.75H930V66.25H920H910V103.75H920ZM920 66.25V56.25H910.625V66.25V76.25H920V66.25ZM910.625 66.25H900.625V103.75H910.625H920.625V66.25H910.625ZM910.625 103.75V93.75H882.5V103.75V113.75H910.625V103.75ZM882.5 103.75H892.5V10H882.5H872.5V103.75H882.5ZM882.5 10V20H948.125V10V0H882.5V10ZM910.625 28.75H900.625V47.5H910.625H920.625V28.75H910.625ZM910.625 47.5V57.5H920V47.5V37.5H910.625V47.5ZM920 47.5H930V28.75H920H910V47.5H920ZM920 28.75V18.75H910.625V28.75V38.75H920V28.75ZM1023.12 10H1033.12V0H1023.12V10ZM1023.12 28.75V38.75H1033.12V28.75H1023.12ZM1004.38 28.75V18.75H994.375V28.75H1004.38ZM1004.38 103.75V113.75H1014.38V103.75H1004.38ZM976.25 103.75H966.25V113.75H976.25V103.75ZM976.25 28.75H986.25V18.75H976.25V28.75ZM957.5 28.75H947.5V38.75H957.5V28.75ZM957.5 10V0H947.5V10H957.5ZM1023.12 10H1013.12V28.75H1023.12H1033.12V10H1023.12ZM1023.12 28.75V18.75H1004.38V28.75V38.75H1023.12V28.75ZM1004.38 28.75H994.375V103.75H1004.38H1014.38V28.75H1004.38ZM1004.38 103.75V93.75H976.25V103.75V113.75H1004.38V103.75ZM976.25 103.75H986.25V28.75H976.25H966.25V103.75H976.25ZM976.25 28.75V18.75H957.5V28.75V38.75H976.25V28.75ZM957.5 28.75H967.5V10H957.5H947.5V28.75H957.5ZM957.5 10V20H1023.12V10V0H957.5V10ZM1098.12 10H1108.12V0H1098.12V10ZM1098.12 103.75V113.75H1108.12V103.75H1098.12ZM1032.5 103.75H1022.5V113.75H1032.5V103.75ZM1032.5 10V0H1022.5V10H1032.5ZM1060.62 10H1070.62V0H1060.62V10ZM1060.62 85H1050.62V95H1060.62V85ZM1070 85V95H1080V85H1070ZM1070 10V0H1060V10H1070ZM1098.12 10H1088.12V103.75H1098.12H1108.12V10H1098.12ZM1098.12 103.75V93.75H1032.5V103.75V113.75H1098.12V103.75ZM1032.5 103.75H1042.5V10H1032.5H1022.5V103.75H1032.5ZM1032.5 10V20H1060.62V10V0H1032.5V10ZM1060.62 10H1050.62V85H1060.62H1070.62V10H1060.62ZM1060.62 85V95H1070V85V75H1060.62V85ZM1070 85H1080V10H1070H1060V85H1070ZM1070 10V20H1098.12V10V0H1070V10ZM1145 103.75H1135V113.75H1145V103.75ZM1145 66.25H1155V56.25H1145V66.25ZM1135.62 66.25V56.25H1125.62V66.25H1135.62ZM1135.62 103.75V113.75H1145.62V103.75H1135.62ZM1107.5 103.75H1097.5V113.75H1107.5V103.75ZM1107.5 10V0H1097.5V10H1107.5ZM1173.12 10H1183.12V0H1173.12V10ZM1173.12 47.5V57.5H1183.12V47.5H1173.12ZM1163.75 47.5V37.5H1153.75V47.5H1163.75ZM1163.75 56.875H1153.75V66.875H1163.75V56.875ZM1173.12 56.875H1183.12V46.875H1173.12V56.875ZM1173.12 103.75V113.75H1183.12V103.75H1173.12ZM1135.62 28.75V18.75H1125.62V28.75H1135.62ZM1135.62 47.5H1125.62V57.5H1135.62V47.5ZM1145 47.5V57.5H1155V47.5H1145ZM1145 28.75H1155V18.75H1145V28.75ZM1145 103.75H1155V66.25H1145H1135V103.75H1145ZM1145 66.25V56.25H1135.62V66.25V76.25H1145V66.25ZM1135.62 66.25H1125.62V103.75H1135.62H1145.62V66.25H1135.62ZM1135.62 103.75V93.75H1107.5V103.75V113.75H1135.62V103.75ZM1107.5 103.75H1117.5V10H1107.5H1097.5V103.75H1107.5ZM1107.5 10V20H1173.12V10V0H1107.5V10ZM1173.12 10H1163.12V47.5H1173.12H1183.12V10H1173.12ZM1173.12 47.5V37.5H1163.75V47.5V57.5H1173.12V47.5ZM1163.75 47.5H1153.75V56.875H1163.75H1173.75V47.5H1163.75ZM1163.75 56.875V66.875H1173.12V56.875V46.875H1163.75V56.875ZM1173.12 56.875H1163.12V103.75H1173.12H1183.12V56.875H1173.12ZM1173.12 103.75V93.75H1145V103.75V113.75H1173.12V103.75ZM1135.62 28.75H1125.62V47.5H1135.62H1145.62V28.75H1135.62ZM1135.62 47.5V57.5H1145V47.5V37.5H1135.62V47.5ZM1145 47.5H1155V28.75H1145H1135V47.5H1145ZM1145 28.75V18.75H1135.62V28.75V38.75H1145V28.75ZM1210.62 47.5H1200.62V57.5H1210.62V47.5ZM1248.12 47.5H1258.12V37.5H1248.12V47.5ZM1248.12 66.25V76.25H1258.12V66.25H1248.12ZM1210.62 66.25V56.25H1200.62V66.25H1210.62ZM1210.62 85H1200.62V95H1210.62V85ZM1248.12 85H1258.12V75H1248.12V85ZM1248.12 103.75V113.75H1258.12V103.75H1248.12ZM1182.5 103.75H1172.5V113.75H1182.5V103.75ZM1182.5 10V0H1172.5V10H1182.5ZM1248.12 10H1258.12V0H1248.12V10ZM1248.12 28.75V38.75H1258.12V28.75H1248.12ZM1210.62 28.75V18.75H1200.62V28.75H1210.62ZM1210.62 47.5V57.5H1248.12V47.5V37.5H1210.62V47.5ZM1248.12 47.5H1238.12V66.25H1248.12H1258.12V47.5H1248.12ZM1248.12 66.25V56.25H1210.62V66.25V76.25H1248.12V66.25ZM1210.62 66.25H1200.62V85H1210.62H1220.62V66.25H1210.62ZM1210.62 85V95H1248.12V85V75H1210.62V85ZM1248.12 85H1238.12V103.75H1248.12H1258.12V85H1248.12ZM1248.12 103.75V93.75H1182.5V103.75V113.75H1248.12V103.75ZM1182.5 103.75H1192.5V10H1182.5H1172.5V103.75H1182.5ZM1182.5 10V20H1248.12V10V0H1182.5V10ZM1248.12 10H1238.12V28.75H1248.12H1258.12V10H1248.12ZM1248.12 28.75V18.75H1210.62V28.75V38.75H1248.12V28.75ZM1210.62 28.75H1200.62V47.5H1210.62H1220.62V28.75H1210.62ZM1257.5 103.75H1247.5V113.75H1257.5V103.75ZM1257.5 85V75H1247.5V85H1257.5ZM1295 85V95H1305V85H1295ZM1295 66.25H1305V56.25H1295V66.25ZM1257.5 66.25H1247.5V76.25H1257.5V66.25ZM1257.5 10V0H1247.5V10H1257.5ZM1323.12 10H1333.12V0H1323.12V10ZM1323.12 28.75V38.75H1333.12V28.75H1323.12ZM1285.62 28.75V18.75H1275.62V28.75H1285.62ZM1285.62 47.5H1275.62V57.5H1285.62V47.5ZM1323.12 47.5H1333.12V37.5H1323.12V47.5ZM1323.12 103.75V113.75H1333.12V103.75H1323.12ZM1257.5 103.75H1267.5V85H1257.5H1247.5V103.75H1257.5ZM1257.5 85V95H1295V85V75H1257.5V85ZM1295 85H1305V66.25H1295H1285V85H1295ZM1295 66.25V56.25H1257.5V66.25V76.25H1295V66.25ZM1257.5 66.25H1267.5V10H1257.5H1247.5V66.25H1257.5ZM1257.5 10V20H1323.12V10V0H1257.5V10ZM1323.12 10H1313.12V28.75H1323.12H1333.12V10H1323.12ZM1323.12 28.75V18.75H1285.62V28.75V38.75H1323.12V28.75ZM1285.62 28.75H1275.62V47.5H1285.62H1295.62V28.75H1285.62ZM1285.62 47.5V57.5H1323.12V47.5V37.5H1285.62V47.5ZM1323.12 47.5H1313.12V103.75H1323.12H1333.12V47.5H1323.12ZM1323.12 103.75V93.75H1257.5V103.75V113.75H1323.12V103.75Z" fill="black" mask="url(#path-1-outside-1_2333_4)"/>
</g>
<defs>
<filter id="filter0_d_2333_4" x="0" y="0" width="1343.12" height="133.75" filterUnits="userSpaceOnUse" color-interpolation-filters="sRGB">
<feFlood flood-opacity="0" result="BackgroundImageFix"/>
<feColorMatrix in="SourceAlpha" type="matrix" values="0 0 0 0 0 0 0 0 0 0 0 0 0 0 0 0 0 0 127 0" result="hardAlpha"/>
<feOffset dy="10"/>
<feGaussianBlur stdDeviation="5"/>
<feComposite in2="hardAlpha" operator="out"/>
<feColorMatrix type="matrix" values="0 0 0 0 0.333333 0 0 0 0 0.333333 0 0 0 0 0.333333 0 0 0 0.25 0"/>
<feBlend mode="normal" in2="BackgroundImageFix" result="effect1_dropShadow_2333_4"/>
<feBlend mode="normal" in="SourceGraphic" in2="effect1_dropShadow_2333_4" result="shape"/>
</filter>
</defs>
</svg>
